<?xml version="1.0" encoding="utf-8"?>
<!-- Generator: Adobe Illustrator 26.5.0, SVG Export Plug-In . SVG Version: 6.00 Build 0)  -->
<svg version="1.1" id="Calque_1" xmlns="http://www.w3.org/2000/svg" xmlns:xlink="http://www.w3.org/1999/xlink" x="0px" y="0px"
	 viewBox="0 0 3840 377.62" style="enable-background:new 0 0 3840 377.62;" xml:space="preserve">
<style type="text/css">
	.st0{fill:#E30137;}
	.st1{fill:#FFFFFF;}
</style>
<path class="st0" d="M0,0v208h1542.93c87.87,0,172.79,33.94,234.91,96.09c36.37,36.4,86.64,58.91,142.16,58.91
	c55.52,0,105.78-22.51,142.16-58.91c62.12-62.15,147.04-96.09,234.91-96.09H3840V0H0z"/>
<path class="st1" d="M1951.63,262.74c-0.82,0-1.58-0.02-2.24-0.04c-1.24-0.01-2.54-0.1-3.82-0.28c-0.01,0-0.25-0.03-0.26-0.03
	c-10.91-1.53-18.83-8.18-19.16-8.46c-3.57-2.46-6.83-5.53-9.61-9.08c-9.3-12.11-13.82-26.93-13.82-45.31
	c0-15.73,3.21-31.09,9.53-45.66c4.07-9.38,9.46-17.98,16.02-25.59c-2.62,0.05-5.43-0.07-8.22-0.3c-5.71-0.46-11.71-0.98-17.99-1.57
	c-3.23,5.81-6.54,12.52-9.86,19.97c-3.41,7.66-6.72,15.84-9.82,24.32c-3.09,8.45-6.04,17.19-8.74,25.96
	c-2.69,8.73-5.06,17.25-7.03,25.32c-1.97,8.04-3.48,15.6-4.49,22.49l-0.16,1.11c-0.06,0.62-0.26,4.05,2.24,6.2
	c0.05,0.04,0.09,0.08,0.13,0.13c1.38,1.18,2.17,2.87,2.17,4.66c0,2.47-1.47,4.69-3.74,5.66c-0.01,0-0.02,0.01-0.03,0.01l0,0
	c-0.86,0.36-1.81,0.56-2.71,0.45c-0.54,0.12-1.15-0.01-1.73-0.09c-5.55-0.46-11.45-3.88-15.34-8.92
	c-5.35-6.91-2.01-19.56-1.87-20.09c0-0.01,0.01-0.03,0.02-0.05c0.53-3.77,1.26-7.77,2.17-11.89c1.4-6.31,3.14-12.96,5.17-19.76
	c2.05-6.87,4.36-13.93,6.88-21c2.52-7.08,5.17-14.11,7.87-20.9c2.65-6.67,5.39-13.27,8.14-19.62c2.48-5.74,4.86-11.08,7.09-15.88
	c-7.07-0.22-13.65,0.3-19.64,1.57c-6.25,1.33-11.17,4.28-14.62,8.77c-1.14,1.49-2.22,3.67-3.19,6.5c-0.81,2.33-1.51,4.87-2.06,7.54
	c-0.25,1.44-0.76,6.39,3.26,8.07l0.31,0.14c0.06,0.03,0.14,0.07,0.21,0.12c2.04,1.06,3.31,3.15,3.31,5.43
	c0,3.39-2.76,6.15-6.15,6.15c-0.99,0-1.98-0.26-2.89-0.75c-0.06-0.02-0.12-0.04-0.17-0.07c-5.44-3.09-9.52-7.32-12.13-12.6
	c-2.6-5.27-3.6-10.85-2.98-16.6c0.61-5.73,2.86-11.38,6.67-16.79c3.8-5.41,9.49-9.92,16.9-13.41c7.36-3.47,16.65-5.6,27.62-6.32
	c10.92-0.74,24,0.68,38.84,4.18c9.05,2.11,16.85,3.5,23.17,4.1c2.25,0.16,10.65,0.2,24.47-5.45c0.04-0.01,0.09-0.03,0.13-0.04
	c7.92-3.17,16.35-4.78,25.07-4.78c20.66,0,34.01,12.37,34.01,31.52c0,12.59-4.33,24.86-13.23,37.5
	c-8.83,12.25-18.25,18.46-28.01,18.46c-8.12,0-15.8-4.98-17.87-9.62c-0.45-0.86-0.7-1.81-0.7-2.79c0-3.39,2.76-6.15,6.15-6.15
	c0.49,0,0.98,0.07,1.54,0.22c0.07,0,0.13,0.01,0.18,0.03c0.01,0,2.24,0.54,6.37-1.34c5.45-2.55,11.24-7.5,17.21-14.7
	c9.38-11.59,13.95-21.3,13.95-29.67c0-5.53-2.87-8.21-8.77-8.21c-19.3,0-36.13,10.51-50.04,31.24
	c-13.9,20.72-20.95,43.81-20.95,68.64c0,9.82,1.23,16.56,3.87,21.23c0.72,1.21,1.99,3.04,3.93,4.77c1.38,1.14,2.98,2.08,4.85,2.85
	l-0.1,0.99l0.35-0.89c0.63,0.25,1.28,0.48,1.96,0.69c0.02,0.01,8.68,1.99,17.55-0.52c0.65-0.23,1.48-0.5,2.39-0.78
	c0.02-0.01,0.05-0.01,0.07-0.02c6-1.79,13.75-3.04,16.7,1.16c0.03,0.04,0.06,0.09,0.08,0.13c0.84,1.09,1.28,2.37,1.28,3.72
	c0,0.68-0.12,1.35-0.35,2c0,0.08-0.02,0.17-0.05,0.25C1973.1,261.24,1959.32,262.74,1951.63,262.74z"/>
</svg>
