<?xml version="1.0" encoding="utf-8"?>
<!-- Generator: Adobe Illustrator 26.5.0, SVG Export Plug-In . SVG Version: 6.00 Build 0)  -->
<svg version="1.1" id="Calque_1" xmlns="http://www.w3.org/2000/svg" xmlns:xlink="http://www.w3.org/1999/xlink" x="0px" y="0px"
	 viewBox="0 0 3974.02 7500.56" style="enable-background:new 0 0 3974.02 7500.56;" xml:space="preserve">
<style type="text/css">
	.st0{fill:#FF931E;}
</style>
<g>
	<path class="st0" d="M3942,3477.08h-0.28c-9.75-63.82-23.03-126.94-41.82-188.81c-105.15-346.26-390.59-632.23-736.64-738.03
		c-157.65-48.2-323.84-60.66-484.77-96.42c-160.93-35.76-323.87-100.02-429.32-226.74c-151.23-181.72-149.03-441.79-141.99-678.1
		c7.04-236.31,2.18-498.22-157.55-672.53c-130.7-142.64-332.27-189.34-508.34-269.51c-232.7-105.96-429.02-276.57-646.28-411.38
		S318.84-40.5,69.46,15.96L28.96,3477.08H0l119.38,3987.7c416.69,48.67,877.99,86.51,1217.31-160.19
		c277.66-201.87,405.23-548.7,492.39-880.74c87.17-332.04,154.26-682.16,358.91-957.77c146.88-197.81,360.54-345.08,597.66-411.97
		c0,0,756.4-158.16,1016.37-622.09C4073.99,3946.68,3942,3477.08,3942,3477.08z"/>
</g>
</svg>
