<?xml version="1.0" encoding="utf-8"?>
<!-- Generator: Adobe Illustrator 26.5.0, SVG Export Plug-In . SVG Version: 6.00 Build 0)  -->
<svg version="1.1" id="Calque_1" xmlns="http://www.w3.org/2000/svg" xmlns:xlink="http://www.w3.org/1999/xlink" x="0px" y="0px"
	 viewBox="0 0 4540.21 572.48" style="enable-background:new 0 0 4540.21 572.48;" xml:space="preserve">
<style type="text/css">
	.st0{fill:#FF7BAC;}
</style>
<g>
	<path class="st0" d="M0,571.04c104.28-86.11,252.31-130.78,396.55-119.66c186.69,14.39,364.51,116.43,548.9,89.96
		c117.97-16.94,221.47-85.46,341.01-91.2c87.22-4.19,171.52,25.62,256.02,45.9c117.58,28.22,240.64,38.42,361.76,29.98
		c133.18-9.28,264.16-40.84,397.88-37.69c137.56,3.25,272.23,43.19,409.79,42.96c111.05-0.19,220.16-26.6,331.22-25.71
		c157.83,1.27,313.2,57.57,470.01,43.56c102.31-9.15,200.48-48.06,303.37-43.4c57.64,2.61,113.29,18.83,169.25,31.56
		c176.27,40.1,362.3,46.04,540.58,17.26l13.87-449.7c-178.28,28.78-364.31,22.84-540.58-17.26
		c-55.96-12.73-111.61-28.95-169.25-31.56c-102.89-4.66-201.06,34.25-303.37,43.4c-156.81,14.02-312.18-42.29-470.01-43.56
		c-111.06-0.89-220.17,25.52-331.22,25.71c-137.56,0.23-272.23-39.71-409.79-42.96c-133.72-3.16-264.7,28.41-397.88,37.69
		c-121.12,8.44-244.18-1.76-361.76-29.98c-84.5-20.28-168.81-50.09-256.02-45.9c-119.53,5.75-223.03,74.26-341.01,91.2
		c-184.39,26.47-362.21-75.56-548.9-89.96C266.18-9.44,118.15,35.22,13.87,121.34L0,571.04z"/>
</g>
</svg>
