<?xml version="1.0" encoding="utf-8"?>
<!-- Generator: Adobe Illustrator 26.5.0, SVG Export Plug-In . SVG Version: 6.00 Build 0)  -->
<svg version="1.1" id="Calque_1" xmlns="http://www.w3.org/2000/svg" xmlns:xlink="http://www.w3.org/1999/xlink" x="0px" y="0px"
	 viewBox="0 0 2368.24 402.69" style="enable-background:new 0 0 2368.24 402.69;" xml:space="preserve">
<style type="text/css">
	.st0{fill:none;}
	.st1{fill:#3FA9F5;}
</style>
<g>
	<rect x="55.73" y="206.39" class="st0" width="61.75" height="0"/>
	<rect x="11" y="14.29" class="st0" width="151.48" height="0"/>
	<rect x="33.37" y="48.46" class="st0" width="0" height="44.73"/>
	<rect x="139.98" y="48.32" class="st0" width="0" height="45.01"/>
	<polygon class="st1" points="162.48,70.83 162.48,14.29 11,14.29 11,70.83 55.73,70.83 55.73,70.83 55.73,206.39 117.48,206.39 
		117.48,70.83 117.48,70.83 117.48,70.83 	"/>
</g>
<path class="st1" d="M601.12,157.91c0.2-1.03,0.37-2.07,0.52-3.12c0.3-2.1,0.49-4.22,0.59-6.36c0.05-1.07,0.07-2.15,0.07-3.23
	c0-3.04-0.16-5.91-0.49-8.63c-2.87-23.6-18.51-35.98-52.37-46.71c-1.3-0.41-2.63-0.82-3.99-1.23c-2.71-0.82-5.53-1.63-8.47-2.43
	c-4.63-1.29-9.21-2.25-13.31-3.25c-2.46-0.6-4.76-1.22-6.79-1.93c-5.42-1.89-8.99-4.42-8.99-9.09l0,0v0c0-2.06,0.56-3.9,1.67-5.46
	c2.44-3.44,7.52-5.51,15.07-5.51c5.21,0,9.67,1.3,13.1,3.57c0.86,0.57,1.65,1.19,2.38,1.87s1.38,1.42,1.96,2.2
	c0.29,0.39,0.57,0.8,0.82,1.21c0.76,1.25,1.36,2.6,1.77,4.04l50.77-12.35c-1.5-7.38-4.14-13.95-7.71-19.71
	c-2.04-3.29-4.38-6.32-6.98-9.08C567.1,18.21,546.25,11,524.1,11c-6.6,0-12.99,0.6-19.05,1.76c-1.21,0.23-2.42,0.49-3.6,0.76
	c-2.38,0.55-4.7,1.19-6.96,1.92c-3.4,1.09-6.66,2.37-9.77,3.83s-6.07,3.1-8.85,4.92c-12.07,7.86-20.91,18.95-24.88,32.47
	c-1.53,5.2-2.34,10.76-2.34,16.63c0,7.41,0.91,13.86,2.61,19.52c1.99,6.6,5.07,12.1,9.06,16.76c1.71,2,3.59,3.84,5.62,5.54
	c0.68,0.57,1.37,1.12,2.08,1.66c4.27,3.23,9.13,5.94,14.49,8.29c5.36,2.35,11.21,4.33,17.44,6.1c3.12,0.88,6.33,1.72,9.62,2.51
	c1.8,0.44,3.54,0.84,5.2,1.21c2.78,0.63,5.37,1.18,7.75,1.72c6.66,1.5,11.7,2.84,14.74,5.13c0.43,0.33,0.83,0.67,1.18,1.04
	c0.35,0.37,0.66,0.76,0.93,1.18c0.53,0.83,0.9,1.77,1.08,2.84c0.09,0.53,0.14,1.1,0.14,1.7l0,0l0,0c0,1.39-0.28,2.66-0.8,3.82
	c-0.88,1.92-2.43,3.5-4.51,4.73c-3.33,1.96-7.99,2.98-13.34,2.98c-8.18,0-15.76-2.34-21.01-6.15c-0.58-0.42-1.14-0.86-1.66-1.32
	c-1.31-1.15-2.43-2.4-3.32-3.73c-0.36-0.54-0.67-1.08-0.95-1.65c-0.7-1.4-1.15-2.89-1.32-4.43l-30.24,9.43l-20.81,6.49
	c7.96,38.42,46.1,51.32,82.33,51.32c39.11,0,63.08-16.98,72.63-40.06c0.8-1.92,1.49-3.89,2.09-5.89S600.73,159.97,601.12,157.91z"/>
<path class="st1" d="M1395.8,128.73V14.29h-61.75v107.85l0,0c0,13.38-5.25,22.28-14.82,25.89c-0.4,0.15-0.8,0.29-1.22,0.42
	c-2.07,0.66-4.32,1.09-6.76,1.28c-0.97,0.08-1.97,0.12-3,0.12c-2.62,0-5.05-0.24-7.3-0.72c-0.9-0.19-1.77-0.42-2.6-0.68
	c-0.54-0.17-1.06-0.36-1.58-0.56c-4.16-1.62-7.47-4.24-9.89-7.78c-0.16-0.23-0.31-0.47-0.46-0.71c-0.56-0.89-1.07-1.83-1.52-2.83
	c-0.07-0.15-0.13-0.3-0.2-0.46c-1.66-3.89-2.53-8.57-2.53-13.98l0,0V14.29h-61.47v114.44c0,6.87,0.52,13.25,1.51,19.18
	c0.09,0.54,0.19,1.06,0.28,1.59c1.73,9.45,4.71,17.69,8.79,24.79c1.53,2.67,3.21,5.18,5.05,7.54c0.3,0.39,0.61,0.78,0.92,1.16
	c1.48,1.8,3.03,3.51,4.69,5.12c0.03,0.03,0.05,0.06,0.08,0.08c15.41,14.95,38.38,21.76,66.22,21.76
	C1360.4,209.96,1395.8,185.81,1395.8,128.73z"/>
<path class="st1" d="M1478.9,14.29v192.1h-61.75V14.29H1478.9z"/>
<path class="st1" d="M1633.62,149.86v56.53h-133.37V14.29h61.75v135.57H1633.62z"/>
<path class="st1" d="M1958.43,14.29h-75.19l-21.41,64.03l-42.81,128.07h66.41l8.23-29.64H1948l3.17,11.4l5.07,18.24h66.41
	L1958.43,14.29z M1936.2,133.94h-30.74l0,0h0l15.37-55.71L1936.2,133.94L1936.2,133.94L1936.2,133.94z"/>
<g>
	<g>
		<path d="M771.91,328.48c0,24.74-17.81,43.29-42.37,43.29h-25.67v-86.58h25.67C754.1,285.19,771.91,303.74,771.91,328.48z
			 M765.4,328.48c0-21.03-14.86-36.61-35.86-36.61h-19.16v73.35h19.16C750.54,365.21,765.4,349.63,765.4,328.48z"/>
		<path d="M843.26,343.82h-53.55c1.47,12.86,12.04,22.88,25.18,22.88c8.23,0,14.98-3.09,20.02-9.03l5.65,3.59
			c-6.26,7.79-15.11,12.12-25.67,12.12c-17.93,0-31.93-14.84-31.93-32.9c0-17.81,13.02-32.9,30.7-32.9
			C831.1,307.58,844.37,322.05,843.26,343.82z M789.71,337.14h46.79c-1.47-13.73-10.93-23.01-22.84-23.01
			C800.65,314.13,791.07,324.4,789.71,337.14z"/>
		<path d="M896.56,354.58c0,9.4-6.63,18.8-21.74,18.8c-11.79,0-19.9-6.8-22.23-14.35l6.14-2.1c1.6,5.07,7.49,9.77,16.09,9.77
			c9.33,0,15.23-4.7,15.23-12.12c0-6.8-4.79-8.91-14.86-11.01c-9.21-1.86-20.51-5.32-20.51-17.81c0-10.14,8.23-18.18,19.53-18.18
			c9.46,0,16.83,5.32,19.41,13.98l-6.39,1.73c-1.72-5.81-6.51-9.15-13.02-9.15c-7.61,0-12.9,5.07-12.9,11.63
			c0,7.05,5.9,9.4,15.48,11.5C885.63,339.12,896.56,341.84,896.56,354.58z"/>
		<path d="M909.7,291.5c0-2.35,1.84-4.33,4.3-4.33c2.46,0,4.3,1.98,4.3,4.33c0,2.47-1.84,4.45-4.3,4.45
			C911.55,295.95,909.7,293.97,909.7,291.5z M910.69,309.06h6.63v62.71h-6.63V309.06z"/>
		<path d="M993.59,309.06v56.15c0,15.96-10.68,31.54-31.56,31.54c-10.93,0-20.76-4.33-26.77-12.12l5.53-3.71
			c5.04,6.31,12.16,9.28,21.25,9.28c17.44,0,24.93-12.62,24.93-24.98v-9.15c-4.79,8.41-13.51,13.98-24.44,13.98
			c-17.44,0-31.07-13.73-31.07-31.29c0-17.44,13.63-31.17,31.07-31.17c10.93,0,19.65,5.44,24.44,13.98v-12.49H993.59z
			 M986.96,338.74c0-13.85-10.69-24.61-24.44-24.61c-13.88,0-24.56,10.76-24.56,24.61c0,13.98,10.69,24.61,24.56,24.61
			C976.27,363.36,986.96,352.72,986.96,338.74z"/>
		<path d="M1064.08,334.79v36.98h-6.51v-36.98c0-8.66-4.05-20.66-18.42-20.66s-20.63,12-20.63,20.66v36.98h-6.51v-62.71h6.51v9.89
			c4.05-6.55,10.81-11.38,20.63-11.38C1057.08,307.58,1064.08,322.54,1064.08,334.79z"/>
		<path d="M1138.51,343.82h-53.55c1.47,12.86,12.04,22.88,25.18,22.88c8.23,0,14.98-3.09,20.02-9.03l5.65,3.59
			c-6.26,7.79-15.11,12.12-25.67,12.12c-17.93,0-31.93-14.84-31.93-32.9c0-17.81,13.02-32.9,30.7-32.9
			C1126.35,307.58,1139.61,322.05,1138.51,343.82z M1084.96,337.14h46.79c-1.47-13.73-10.93-23.01-22.84-23.01
			C1095.89,314.13,1086.31,324.4,1084.96,337.14z"/>
		<path d="M1181.49,307.58v7.67c-13.76,0-22.11,8.78-22.11,24.61v31.91h-6.63v-62.71h6.63v13.48
			C1163.68,314.13,1171.3,307.58,1181.49,307.58z"/>
		<path d="M1308.85,325.01v46.75h-4.3l-1.6-18.31c-6.02,12.12-17.44,19.91-33.78,19.91c-24.56,0-43.48-20.16-43.48-44.9
			s18.91-44.78,43.48-44.78c13.76,0,25.79,6.31,33.65,16.33l-5.53,3.59c-6.63-8.16-16.7-13.36-28.13-13.36
			c-21,0-36.97,17.19-36.97,38.22c0,21.15,15.97,38.22,36.97,38.22c21.25,0,32.79-15.34,33.16-35.13h-30.83v-6.56H1308.85z"/>
		<path d="M1355.4,307.58v7.67c-13.76,0-22.11,8.78-22.11,24.61v31.91h-6.63v-62.71h6.63v13.48
			C1337.59,314.13,1345.2,307.58,1355.4,307.58z"/>
		<path d="M1413.86,371.77h-6.51v-9.65c-3.93,5.69-10.56,11.25-21.74,11.25c-12.4,0-21.62-7.79-21.62-18.68
			c0-19.67,23.7-19.42,41.39-19.42c0.61,0,1.35,0.12,1.96,0.12v-4.21c0-8.66-3.93-17.07-16.21-17.07c-8.35,0-13.51,3.59-17.69,6.8
			l-5.28-4.08c4.79-4.21,11.79-9.28,22.97-9.28c13.88,0,22.72,8.91,22.72,23.62V371.77z M1407.35,352.84v-10.88
			c-0.74,0-1.35,0-2.09,0c-14.37,0-34.51-1.36-34.51,12.74c0,8.16,7.62,12,14.86,12C1399.61,366.7,1405.75,357.79,1407.35,352.84z"
			/>
		<path d="M1495.04,340.48c0,18.06-13.02,32.9-31.07,32.9c-10.69,0-19.28-5.32-24.44-13.36v35.62h-6.63v-86.58h6.63v11.87
			c5.16-8.16,13.76-13.36,24.44-13.36C1482.02,307.58,1495.04,322.29,1495.04,340.48z M1488.53,340.48
			c0-14.47-10.19-26.35-24.56-26.35c-14.37,0-24.44,11.87-24.44,26.35c0,14.47,10.07,26.22,24.44,26.22
			C1478.33,366.7,1488.53,354.95,1488.53,340.48z"/>
		<path d="M1561.36,334.79v36.98h-6.63v-36.98c0-8.66-4.05-20.66-18.42-20.66c-14.37,0-20.63,12-20.63,20.66v36.98h-6.51v-86.58
			h6.51v33.77c4.05-6.55,10.81-11.38,20.63-11.38C1554.23,307.58,1561.36,322.54,1561.36,334.79z"/>
		<path d="M1578.79,291.5c0-2.35,1.84-4.33,4.3-4.33s4.3,1.98,4.3,4.33c0,2.47-1.84,4.45-4.3,4.45S1578.79,293.97,1578.79,291.5z
			 M1579.78,309.06h6.63v62.71h-6.63V309.06z"/>
		<path d="M1662.68,309.06v86.58h-6.51v-35.62c-5.16,8.04-13.75,13.36-24.56,13.36c-17.93,0-31.07-14.84-31.07-32.9
			c0-18.18,13.14-32.9,31.07-32.9c10.81,0,19.41,5.2,24.56,13.36v-11.87H1662.68z M1656.17,340.48c0-14.47-10.19-26.35-24.56-26.35
			c-14.37,0-24.44,11.87-24.44,26.35c0,14.47,10.07,26.22,24.44,26.22C1645.98,366.7,1656.17,354.95,1656.17,340.48z"/>
		<path d="M1733.3,309.06v62.71h-6.63V362c-3.93,6.43-10.69,11.38-20.51,11.38c-18.05,0-25.05-14.97-25.05-27.21v-37.11h6.63v37.11
			c0,8.53,4.05,20.53,18.42,20.53c14.37,0,20.51-12,20.51-20.53v-37.11H1733.3z"/>
		<path d="M1807.72,343.82h-53.55c1.47,12.86,12.04,22.88,25.18,22.88c8.23,0,14.98-3.09,20.02-9.03l5.65,3.59
			c-6.26,7.79-15.11,12.12-25.67,12.12c-17.93,0-31.93-14.84-31.93-32.9c0-17.81,13.02-32.9,30.7-32.9
			C1795.56,307.58,1808.83,322.05,1807.72,343.82z M1754.17,337.14h46.79c-1.47-13.73-10.93-23.01-22.84-23.01
			C1765.1,314.13,1755.52,324.4,1754.17,337.14z"/>
		<path d="M1869.13,308.07v0.99h15.6v6.68h-15.6v56.03h-6.51v-56.03h-11.18v-6.68h11.18v-0.99c0-16.45,7.74-24.12,22.11-24.12v6.56
			C1874.04,290.51,1869.13,295.21,1869.13,308.07z"/>
		<path d="M1926.36,307.58v7.67c-13.76,0-22.11,8.78-22.11,24.61v31.91h-6.63v-62.71h6.63v13.48
			C1908.55,314.13,1916.17,307.58,1926.36,307.58z"/>
		<path d="M1995.26,343.82h-53.55c1.47,12.86,12.04,22.88,25.18,22.88c8.23,0,14.98-3.09,20.02-9.03l5.65,3.59
			c-6.26,7.79-15.11,12.12-25.67,12.12c-17.93,0-31.93-14.84-31.93-32.9c0-17.81,13.02-32.9,30.7-32.9
			C1983.1,307.58,1996.36,322.05,1995.26,343.82z M1941.71,337.14h46.79c-1.47-13.73-10.93-23.01-22.84-23.01
			C1952.64,314.13,1943.06,324.4,1941.71,337.14z"/>
		<path d="M2065.51,343.82h-53.55c1.47,12.86,12.04,22.88,25.18,22.88c8.23,0,14.98-3.09,20.02-9.03l5.65,3.59
			c-6.26,7.79-15.11,12.12-25.67,12.12c-17.93,0-31.93-14.84-31.93-32.9c0-17.81,13.02-32.9,30.7-32.9
			C2053.35,307.58,2066.61,322.05,2065.51,343.82z M2011.96,337.14h46.79c-1.47-13.73-10.93-23.01-22.84-23.01
			C2022.89,314.13,2013.31,324.4,2011.96,337.14z"/>
		<path d="M2086.26,285.19v86.58h-6.51v-86.58H2086.26z"/>
		<path d="M2150.25,371.77h-6.51v-9.65c-3.93,5.69-10.56,11.25-21.74,11.25c-12.4,0-21.62-7.79-21.62-18.68
			c0-19.67,23.7-19.42,41.39-19.42c0.61,0,1.35,0.12,1.96,0.12v-4.21c0-8.66-3.93-17.07-16.21-17.07c-8.35,0-13.51,3.59-17.69,6.8
			l-5.28-4.08c4.79-4.21,11.79-9.28,22.97-9.28c13.88,0,22.72,8.91,22.72,23.62V371.77z M2143.74,352.84v-10.88
			c-0.74,0-1.35,0-2.09,0c-14.37,0-34.51-1.36-34.51,12.74c0,8.16,7.62,12,14.86,12C2136,366.7,2142.14,357.79,2143.74,352.84z"/>
		<path d="M2220.75,334.79v36.98h-6.51v-36.98c0-8.66-4.05-20.66-18.42-20.66s-20.63,12-20.63,20.66v36.98h-6.51v-62.71h6.51v9.89
			c4.05-6.55,10.81-11.38,20.63-11.38C2213.74,307.58,2220.75,322.54,2220.75,334.79z"/>
		<path d="M2288.42,355.44l5.89,3.09c-5.77,8.91-15.72,14.84-27.02,14.84c-18.05,0-32.42-14.84-32.42-32.9
			c0-18.18,14.37-32.9,32.42-32.9c11.3,0,21.25,5.81,27.02,14.72l-5.89,3.22c-4.54-6.8-12.28-11.38-21.12-11.38
			c-14.37,0-25.79,11.87-25.79,26.35c0,14.47,11.42,26.22,25.79,26.22C2276.13,366.7,2283.87,362.25,2288.42,355.44z"/>
		<path d="M2363.21,343.82h-53.55c1.47,12.86,12.04,22.88,25.18,22.88c8.23,0,14.98-3.09,20.02-9.03l5.65,3.59
			c-6.26,7.79-15.11,12.12-25.67,12.12c-17.93,0-31.93-14.84-31.93-32.9c0-17.81,13.02-32.9,30.7-32.9
			C2351.05,307.58,2364.31,322.05,2363.21,343.82z M2309.66,337.14h46.79c-1.47-13.73-10.93-23.01-22.84-23.01
			C2320.59,314.13,2311.01,324.4,2309.66,337.14z"/>
	</g>
</g>
<g>
	<path class="st1" d="M280.33,160.87c-0.43-2.1-0.24-4.19,0.47-6.07h-37.35v-23.05h62.3v-9.65c-10.07-9.05-16.18-20.53-18.51-34.81
		h-43.79V65.89v0h43.08c2.04-19.77,12.22-36.57,27.99-48.26v-3.34H181.7v192.1h131.22C295.6,196.01,284.37,180.35,280.33,160.87z"/>
</g>
<g>
	<path class="st1" d="M431.82,160.87c-1.15-5.54,2.1-11.05,7.5-12.73l11.5-3.58c-0.02-2.8-0.18-5.46-0.48-7.99
		c-2.87-23.6-18.51-35.98-52.37-46.71c-3.91-1.24-8.05-2.45-12.45-3.66c-1.39-0.39-2.77-0.74-4.14-1.08
		c-0.91-0.23-1.82-0.44-2.71-0.65c-0.89-0.21-1.78-0.42-2.65-0.62c-0.52-0.12-1.03-0.24-1.54-0.36c-0.77-0.18-1.53-0.36-2.27-0.54
		c-0.41-0.1-0.82-0.2-1.22-0.3c-0.8-0.2-1.58-0.41-2.34-0.62c-0.38-0.11-0.75-0.21-1.12-0.32c-6.59-1.97-11.1-4.52-11.1-9.77
		c0-6.59,5.76-10.98,16.74-10.98c6.52,0,11.86,2.04,15.48,5.44c0.72,0.68,1.38,1.42,1.96,2.2c0.29,0.39,0.56,0.8,0.82,1.21
		c0.76,1.25,1.36,2.6,1.77,4.04l45.22-11c0.57-3.9,1.46-7.67,2.66-11.3c-1.33-3.48-2.95-6.74-4.82-9.76
		c-2.04-3.29-4.38-6.32-6.98-9.08C415.61,18.21,394.76,11,372.61,11c-13.21,0-25.53,2.41-36.23,6.88c-1.07,0.45-2.12,0.91-3.16,1.4
		c-7.26,3.41-13.69,7.81-19.03,13.07c-1.53,1.5-2.97,3.08-4.31,4.72c-1.34,1.64-2.59,3.35-3.74,5.12c-0.57,0.89-1.12,1.79-1.65,2.71
		c-1.05,1.84-1.99,3.74-2.83,5.7c-0.84,1.96-1.56,3.98-2.17,6.06c-1.53,5.2-2.34,10.76-2.34,16.63c0,7.41,0.91,13.86,2.61,19.52
		c1.99,6.6,5.07,12.1,9.06,16.76c1.71,2,3.59,3.84,5.62,5.54c0.68,0.57,1.37,1.12,2.08,1.66c4.27,3.23,9.13,5.94,14.49,8.29
		c5.36,2.35,11.21,4.33,17.44,6.1c3.12,0.88,6.33,1.72,9.62,2.51c1.8,0.44,3.54,0.84,5.2,1.21c1.67,0.38,3.27,0.73,4.79,1.06
		c8.14,1.79,14.22,3.17,17.69,5.79c0.43,0.33,0.83,0.67,1.18,1.04c0.35,0.37,0.66,0.76,0.93,1.18c0.53,0.83,0.9,1.77,1.08,2.84
		c0.09,0.53,0.14,1.1,0.14,1.7c0,1.39-0.28,2.66-0.8,3.82c-0.88,1.92-2.43,3.5-4.51,4.73c-3.33,1.96-7.99,2.98-13.34,2.98
		c-6.82,0-13.21-1.63-18.2-4.38c-1.99-1.1-3.76-2.38-5.24-3.8c-0.49-0.47-0.95-0.97-1.38-1.47s-0.82-1.03-1.17-1.56
		c-0.36-0.54-0.67-1.08-0.95-1.65c-0.7-1.4-1.15-2.89-1.32-4.43l-30.24,9.43l-20.81,6.49c7.96,38.42,46.1,51.32,82.33,51.32
		c32.17,0,54.1-11.5,66.18-28.42C436,175.26,433.37,168.36,431.82,160.87z"/>
</g>
<g>
	<path class="st1" d="M838.14,136.33l-1.94-1.28c-7.13,9.33-18.39,14.82-31.83,14.82c-22.78,0-39.52-16.19-39.52-39.52
		c0-23.05,16.74-39.52,39.52-39.52c13.45,0,24.7,5.49,31.83,14.82l1.97-1.3c4.64-20.11,14.67-38.29,29.38-52.72
		C850.5,18.64,828.68,11,804.36,11c-57.63,0-101.26,42.81-101.26,99.34c0,56.81,43.63,99.62,101.26,99.62
		c24.31,0,46.11-7.63,63.16-20.69C852.79,174.79,842.76,156.53,838.14,136.33z"/>
</g>
<g>
	<path class="st1" d="M1025.57,110.75c0-17.46,3.81-34.13,11.02-49.03c-0.29-0.52-0.58-1.05-0.87-1.57
		c-2.78-4.86-5.97-9.43-9.53-13.69c-2.03-2.43-4.18-4.77-6.45-6.99c-2.26-2.22-4.64-4.33-7.12-6.33c-3.72-2.99-7.68-5.72-11.86-8.15
		c-2.78-1.62-5.66-3.12-8.62-4.48c-0.74-0.34-1.49-0.67-2.24-1c-1.5-0.65-3.03-1.26-4.57-1.84c-1.55-0.58-3.11-1.12-4.7-1.62
		C970.33,12.77,959.2,11,947.49,11c-11.71,0-22.83,1.77-33.14,5.06c-1.59,0.51-3.15,1.05-4.7,1.62c-1.55,0.58-3.07,1.19-4.57,1.84
		c-0.75,0.32-1.5,0.66-2.24,1c-2.96,1.36-5.84,2.86-8.62,4.48c-4.17,2.44-8.13,5.16-11.86,8.15c-2.48,1.99-4.86,4.1-7.12,6.33
		c-2.26,2.22-4.42,4.55-6.45,6.99c-3.56,4.26-6.74,8.84-9.53,13.69c-0.4,0.69-0.79,1.39-1.17,2.1c-4.19,7.75-7.36,16.18-9.37,25.14
		c-0.18,0.81-0.36,1.63-0.52,2.46c-0.33,1.65-0.61,3.31-0.86,4.99c-0.74,5.03-1.13,10.21-1.13,15.51c0,4.44,0.27,8.79,0.78,13.04
		c0.21,1.7,0.46,3.39,0.74,5.06c0.14,0.83,0.3,1.66,0.46,2.49c9.14,46.25,48.85,79.03,99.28,79.03c39.23,0,71.97-19.85,88.88-50.44
		C1029.3,144.68,1025.57,128.11,1025.57,110.75z M986.25,118.74c-0.25,1.34-0.56,2.64-0.93,3.91c-0.18,0.64-0.38,1.26-0.6,1.88
		c-0.43,1.24-0.91,2.44-1.44,3.6c-0.27,0.58-0.55,1.15-0.84,1.71c-0.59,1.12-1.23,2.21-1.92,3.25c-0.35,0.52-0.7,1.03-1.07,1.53
		c-1.11,1.5-2.33,2.91-3.65,4.22c-3.08,3.05-6.7,5.54-10.75,7.37c-1.16,0.52-2.35,1-3.58,1.41c-4.29,1.45-8.99,2.23-13.97,2.23
		c-3.56,0-6.97-0.4-10.19-1.15c-1.29-0.3-2.55-0.66-3.78-1.08c-1.23-0.42-2.42-0.89-3.58-1.41c-0.58-0.26-1.15-0.54-1.71-0.83
		c-4-2.06-7.54-4.79-10.49-8.07c-0.77-0.86-1.51-1.75-2.2-2.69c-0.6-0.81-1.15-1.65-1.69-2.52c-0.24-0.4-0.48-0.8-0.71-1.21
		c-0.73-1.29-1.39-2.63-1.97-4.02c-0.14-0.34-0.28-0.68-0.41-1.03c-1.8-4.67-2.79-9.89-2.79-15.52c0-5.49,0.96-10.61,2.72-15.22
		c0.19-0.49,0.38-0.97,0.58-1.44c1.15-2.7,2.58-5.21,4.27-7.51c0.37-0.5,0.75-0.99,1.15-1.48c1.16-1.42,2.42-2.74,3.78-3.97
		c6.93-6.26,16.31-9.91,27.02-9.91c12.81,0,23.71,5.21,30.8,13.87c0.39,0.48,0.78,0.97,1.15,1.48c0.74,1,1.43,2.05,2.07,3.14
		c0.32,0.54,0.63,1.09,0.92,1.66c1.18,2.25,2.15,4.64,2.88,7.17c1.11,3.79,1.7,7.88,1.7,12.21
		C987.01,113.26,986.75,116.06,986.25,118.74z"/>
</g>
<g>
	<path class="st1" d="M1209.72,128.73V39.55c-18.09-17.57-43.26-28.14-71.89-28.14c-38.72,0-71.12,19.33-88.22,49.15
		c-0.4,0.69-0.79,1.39-1.17,2.1c-1.52,2.82-2.91,5.73-4.16,8.72c-0.62,1.5-1.21,3.01-1.76,4.55s-1.07,3.09-1.55,4.66
		c-0.48,1.57-0.92,3.17-1.32,4.78c-2.02,8.05-3.08,16.55-3.08,25.38c0,7.99,0.86,15.7,2.51,23.05c0.18,0.82,0.37,1.63,0.58,2.44
		c0.4,1.62,0.85,3.21,1.32,4.79c1.92,6.32,4.43,12.33,7.47,17.99c0.76,1.41,1.56,2.81,2.39,4.17c0.83,1.37,1.69,2.71,2.58,4.03
		s1.82,2.62,2.77,3.89c0.96,1.27,1.94,2.52,2.96,3.74c1.02,1.22,2.06,2.41,3.14,3.58c18.27,19.84,44.94,31.93,75.55,31.93
		c4.73,0,9.38-0.31,13.93-0.9c4.55-0.59,8.99-1.47,13.31-2.6c3.24-0.85,6.42-1.84,9.52-2.97c5.17-1.88,10.12-4.13,14.84-6.7
		l13.36,13.54l6.68,6.77l9.79-9.79l13.4-13.4C1217.44,178.57,1209.72,156.56,1209.72,128.73z M1175.15,124.2L1175.15,124.2
		l-9.26-9.4l-9.13-9.26l-29.64,29.09l15.37,15.64l0,0c-1.65,0-3.02,0-4.66,0c-3.6,0-7.05-0.4-10.3-1.15
		c-0.65-0.15-1.29-0.32-1.93-0.5c-3.81-1.08-7.33-2.67-10.49-4.71s-5.96-4.53-8.33-7.4c-0.79-0.96-1.53-1.96-2.23-3.01
		c-0.35-0.52-0.68-1.05-1-1.6c-0.96-1.63-1.81-3.34-2.53-5.14c-0.96-2.4-1.71-4.95-2.21-7.62c-0.5-2.68-0.76-5.48-0.76-8.4
		c0-5.04,0.8-9.77,2.29-14.08c0.43-1.23,0.91-2.43,1.45-3.59c2.15-4.64,5.16-8.7,8.87-12.01c6.96-6.22,16.38-9.84,27.18-9.84
		c1.42,0,2.82,0.06,4.2,0.19c1.37,0.13,2.72,0.31,4.04,0.56c0.66,0.12,1.31,0.26,1.96,0.42c1.29,0.31,2.55,0.67,3.78,1.09
		c0.61,0.21,1.22,0.43,1.81,0.67c14.32,5.71,23.73,19.3,23.73,36.58C1177.35,115.69,1176.53,120.08,1175.15,124.2z"/>
</g>
<g>
	<path class="st1" d="M1808.04,206.39c0-1.17,0.17-2.35,0.55-3.49l22.62-67.67V14.29h-61.47v67.24h-55.16V14.29h-61.75v192.1h61.75
		v-69.16h55.16v69.16H1808.04z"/>
</g>
<g>
	<path class="st1" d="M2115.79,70.83V14.29h-145.76l18.9,56.53h20.11l0,0v60.15l24.04,71.93c0.38,1.14,0.55,2.32,0.55,3.49h37.15
		V70.83l0,0H2115.79z"/>
</g>
</svg>
