<?xml version="1.0" encoding="utf-8"?>
<!-- Generator: Adobe Illustrator 26.5.0, SVG Export Plug-In . SVG Version: 6.00 Build 0)  -->
<svg version="1.1" id="Calque_1" xmlns="http://www.w3.org/2000/svg" xmlns:xlink="http://www.w3.org/1999/xlink" x="0px" y="0px"
	 viewBox="0 0 1957.97 873.76" style="enable-background:new 0 0 1957.97 873.76;" xml:space="preserve">
<style type="text/css">
	.st0{fill:#FFFFFF;}
</style>
<g>
	<path class="st0" d="M188.05,760.51l29.23-6.17c3.63,30.52-6.3,61.99-30.72,86.79c-43.57,44.25-108.71,42.85-152.53-0.29
		C-9.8,797.69-12,732.79,31.56,688.54c24.41-24.8,55.52-35.44,86.3-32.07l-5.92,29.11c-20.81-1.96-42.61,4.36-60.5,22.53
		c-34.31,34.85-25.03,82.29,4.05,110.92c29.08,28.62,76.66,37.16,110.97,2.32C184.35,803.17,190.33,781.28,188.05,760.51z"/>
	<path class="st0" d="M320.83,605.4c29.42,32.45,28.49,81.89-5.51,112.72c-34,30.83-83.3,26.94-112.72-5.51
		c-29.42-32.45-28.49-81.89,5.51-112.72C242.11,569.06,291.4,572.96,320.83,605.4z M300.16,624.15
		c-20.96-23.11-52.5-25.29-74.72-5.14c-22.22,20.15-22.91,51.55-1.95,74.66c20.76,22.89,52.07,25.27,74.3,5.12
		S320.92,647.04,300.16,624.15z"/>
	<path class="st0" d="M496.18,431.6l62.7,78.55l-21.34,17.03l-57.64-72.22c-13.48-16.88-31.6-22.76-48.95-8.91
		c-16.65,13.29-14.8,34.84-2.63,50.08l57.64,72.22l-21.34,17.03l-57.64-72.22c-13.47-16.88-31.6-22.76-48.72-9.1
		c-16.88,13.47-15.03,35.03-2.87,50.27l57.64,72.22l-21.34,17.03L296.8,524.71l21.34-17.03l11.23,14.07
		c-0.92-14.62,3.41-30.36,18.41-42.33c14.3-11.42,32.95-14.02,49.58-8.1c-0.92-16.54,4.82-35.32,22.64-49.55
		C442.51,403.8,476.15,406.51,496.18,431.6z"/>
	<path class="st0" d="M709.68,287.67l55.26,83.95l-22.8,15.01l-50.81-77.18c-11.88-18.04-29.39-25.55-47.93-13.34
		c-17.79,11.71-17.92,33.35-7.2,49.63l50.81,77.18l-22.8,15.01l-50.81-77.18c-11.88-18.04-29.39-25.55-47.68-13.51
		c-18.04,11.88-18.17,33.51-7.45,49.8l50.81,77.18l-22.8,15.01l-83.63-127.05l22.8-15.01l9.9,15.04
		c0.42-14.64,6.17-29.92,22.2-40.48c15.29-10.06,34.1-10.95,50.11-3.54c0.6-16.55,8.02-34.73,27.07-47.27
		C658.78,255.09,692.03,260.86,709.68,287.67z"/>
	<path class="st0" d="M843.32,160.21l69.47,135.31l-24.29,12.47l-9.59-18.68c-1.84,16.12-9.98,33.11-30.26,43.53
		c-30.42,15.62-65.06,1.37-79.72-27.19l-43.58-84.87l24.29-12.47l39.88,77.66c9.87,19.21,27.46,33.79,52.82,20.77
		c25.62-13.15,24.79-40.38,16.57-56.4l-39.88-77.66L843.32,160.21z"/>
	<path class="st0" d="M1033.39,145.63l33.77,88.9l-25.52,9.7l-31-81.61c-7.56-19.91-23.54-36.63-50.18-26.51
		c-26.92,10.23-29.02,37.66-22.73,54.21l31,81.61l-25.52,9.7l-54.02-142.19l25.52-9.7l7.56,19.91c3.62-15.82,13.59-31.8,35.19-40
		C989.43,97.5,1021.99,115.62,1033.39,145.63z"/>
	<path class="st0" d="M1046.48,38.9c-2.26-8.09,2.45-16.88,10.83-19.22c8.38-2.34,16.96,2.74,19.22,10.83
		c2.34,8.38-2.45,16.88-10.83,19.22C1057.32,52.07,1048.82,47.28,1046.48,38.9z M1059.67,79.45l26.58-7.42l40.88,146.51l-26.59,7.42
		L1059.67,79.45z"/>
	<path class="st0" d="M1264.91,142.91l25.23,8.36c-9.7,24.55-30.69,43.77-59.94,48.91c-45.21,7.94-84.83-21.65-92.4-64.79
		c-7.58-43.14,19.58-84.46,64.79-92.4c29.25-5.14,55.54,5.78,72.97,25.25L1254.73,85c-11.46-13.22-28.78-19.92-47.69-16.6
		c-29.55,5.19-47.17,31.44-41.77,62.17c5.35,30.43,30.86,49.1,60.41,43.91C1244.59,171.15,1258.64,159.24,1264.91,142.91z"/>
	<path class="st0" d="M1437.62,90.49l0.8,91.8l-27.3,0.24l-0.18-21c-6.8,11.76-25.58,25.12-49.58,25.33
		c-28.8,0.25-54.15-16.93-54.39-44.23c-0.42-47.7,57.47-49.4,78.77-49.59c7.8-0.07,20.7-0.18,24.6-0.21
		c-0.2-23.1-5.16-41.06-36.66-40.78c-15.9,0.14-32.63,8.38-39.18,13.84l-19.33-14.53c16.67-15.45,39.69-24.05,63.69-24.26
		C1422.66,26.71,1437.3,54.19,1437.62,90.49z M1410.52,114.12c-0.9,0.01-8.7,0.08-10.5,0.09c-28.2,0.25-65.1,0.27-64.87,26.97
		c0.1,11.7,7.71,23.63,32.01,23.42c26.1-0.23,41.84-18.67,43.58-25.58L1410.52,114.12z"/>
	<path class="st0" d="M1520.97,66.14l-8.77,66.02c-2.84,21.41-4.44,35.73,19.05,38.85c4.46,0.59,7.77,0.73,11.08,0.87l-3.16,23.79
		c-3.98,0.38-8.82,0.34-14.77-0.45c-32.71-4.34-44.96-23.83-40.57-56.84l10.07-75.84l-23.49-3.12l3.43-25.88l23.5,3.12l4.19-31.52
		l27.06,3.59l-4.19,31.52l34.8,4.62l-3.44,25.87L1520.97,66.14z"/>
	<path class="st0" d="M1602.41,54l26.89,6.22l-34.26,148.19l-26.89-6.22L1602.41,54z M1610.25,12.08
		c1.89-8.18,10.24-13.64,18.71-11.68c8.48,1.96,13.58,10.53,11.69,18.71c-1.96,8.48-10.24,13.64-18.71,11.69
		C1613.46,28.84,1608.29,20.56,1610.25,12.08z"/>
	<path class="st0" d="M1794.68,196.7c-15.6,40.93-60.1,62.49-102.99,46.13c-42.89-16.35-61.74-62.07-46.14-102.99
		c15.6-40.93,60.11-62.49,103-46.14C1791.43,110.06,1810.28,155.77,1794.68,196.7z M1768.61,186.76
		c11.11-29.15-1.23-58.26-29.26-68.95c-28.03-10.69-56.34,2.92-67.45,32.08c-11.01,28.87,1.05,57.87,29.08,68.56
		C1729.02,229.14,1757.6,215.63,1768.61,186.76z"/>
	<path class="st0" d="M1947.68,270.07l-51.88,79.71l-22.88-14.89l47.62-73.17c11.62-17.85,15.69-40.61-8.19-56.16
		c-24.14-15.71-47.53-1.22-57.18,13.61l-47.62,73.17l-22.88-14.89l82.97-127.48l22.88,14.89l-11.62,17.85
		c14.91-6.41,33.7-7.78,53.06,4.82C1960.62,206.19,1965.19,243.17,1947.68,270.07z"/>
</g>
</svg>
