<?xml version="1.0" encoding="utf-8"?>
<!-- Generator: Adobe Illustrator 26.5.0, SVG Export Plug-In . SVG Version: 6.00 Build 0)  -->
<svg version="1.1" id="Calque_1" xmlns="http://www.w3.org/2000/svg" xmlns:xlink="http://www.w3.org/1999/xlink" x="0px" y="0px"
	 viewBox="0 0 480.14 382.79" style="enable-background:new 0 0 480.14 382.79;" xml:space="preserve">
<style type="text/css">
	.st0{fill:#E30137;}
</style>
<g>
	<path class="st0" d="M139.74,382.79C43.71,382.79,0,305.96,0,196.03C0,97.35,47.68,13.91,130.47,0l32.45,151
		c-19.87,1.99-33.11,16.56-33.11,39.74c0,22.52,13.25,33.11,33.11,33.11c15.89,0,27.81-10.6,27.81-33.11v-56.95h111.26v56.95
		c0,18.54,7.29,33.11,25.83,33.11c19.21,0,28.48-14.57,28.48-33.11c0-19.21-11.26-31.79-29.8-33.78l31.79-140.4
		C432.46,29.8,480.14,94.7,480.14,196.03c0,109.94-50.99,174.84-133.11,174.84c-43.71,0-77.48-23.18-98.02-64.24
		C229.8,353.65,195.37,382.79,139.74,382.79z"/>
</g>
</svg>
