<?xml version="1.0" encoding="utf-8"?>
<!-- Generator: Adobe Illustrator 26.5.0, SVG Export Plug-In . SVG Version: 6.00 Build 0)  -->
<svg version="1.1" id="Calque_1" xmlns="http://www.w3.org/2000/svg" xmlns:xlink="http://www.w3.org/1999/xlink" x="0px" y="0px"
	 viewBox="0 0 104.16 65.09" style="enable-background:new 0 0 104.16 65.09;" xml:space="preserve">
<style type="text/css">
	.st0{fill:#FFFFFF;}
</style>
<g>
	<g>
		<path class="st0" d="M52.44,48.31c0,2.75-0.55,5.17-1.65,7.24c-1.1,2.08-2.61,3.82-4.54,5.22c-1.93,1.41-4.16,2.48-6.69,3.21
			c-2.54,0.73-5.24,1.1-8.11,1.1H0V0h34.83c2.26,0,4.31,0.49,6.14,1.47c1.83,0.98,3.39,2.25,4.67,3.8c1.28,1.56,2.28,3.33,2.98,5.32
			c0.7,1.99,1.05,3.99,1.05,6c0,3.18-0.79,6.16-2.38,8.94c-1.59,2.78-3.91,4.84-6.97,6.19c3.73,1.1,6.68,3.07,8.85,5.91
			C51.35,40.47,52.44,44.03,52.44,48.31z M12.65,10.82v16.41h16.87c2.14,0,3.96-0.73,5.45-2.2c1.5-1.47,2.25-3.48,2.25-6.05
			c0-2.51-0.69-4.49-2.06-5.96c-1.37-1.47-3.07-2.2-5.09-2.2H12.65z M39.69,45.93c0-1.16-0.2-2.28-0.6-3.35
			c-0.4-1.07-0.93-2-1.6-2.8c-0.67-0.79-1.47-1.42-2.38-1.88c-0.92-0.46-1.92-0.69-3.03-0.69H12.65v17.14h18.79
			c1.16,0,2.25-0.21,3.25-0.64c1.01-0.43,1.88-1.02,2.61-1.79c0.73-0.76,1.31-1.66,1.74-2.7C39.48,48.19,39.69,47.09,39.69,45.93z"
			/>
	</g>
	<path class="st0" d="M79.84,65.09c-3.73,0-7.1-0.64-10.13-1.91c-5.98-2.55-10.2-6.83-12.66-12.84c-1.15-2.9-1.73-5.95-1.73-9.15
		c0-3.32,0.56-6.44,1.69-9.37c2.41-6.09,6.63-10.42,12.66-13.01c3.05-1.3,6.47-1.95,10.26-1.95c3.79,0,7.18,0.65,10.17,1.95
		c9.83,4.29,14.46,13.81,14.03,24.16c-0.03,0.71-0.11,1.3-0.22,1.78H67.94c0.18,1.84,0.62,3.46,1.33,4.88
		c0.71,1.42,1.63,2.64,2.75,3.64c1.12,1.01,2.4,1.78,3.82,2.31c1.42,0.53,2.9,0.8,4.44,0.8c2.37,0,4.6-0.58,6.71-1.73
		c2.1-1.15,3.54-2.68,4.31-4.57l10.21,2.84c-1.72,3.55-4.46,6.47-8.22,8.75C89.54,63.95,85.05,65.09,79.84,65.09z M91.92,37.02
		c-0.3-3.49-1.59-6.29-3.86-8.39c-2.28-2.1-5.05-3.15-8.31-3.15c-1.6,0-3.09,0.28-4.49,0.84c-1.39,0.56-2.62,1.35-3.69,2.35
		c-1.07,1.01-1.94,2.22-2.62,3.64c-0.68,1.42-1.08,2.99-1.2,4.71L91.92,37.02L91.92,37.02z"/>
	<path class="st0" d="M64.18,3.09h31.15v7.73H64.18V3.09z"/>
</g>
</svg>
