<?xml version="1.0" encoding="utf-8"?>
<!-- Generator: Adobe Illustrator 26.5.0, SVG Export Plug-In . SVG Version: 6.00 Build 0)  -->
<svg version="1.1" id="Calque_1" xmlns="http://www.w3.org/2000/svg" xmlns:xlink="http://www.w3.org/1999/xlink" x="0px" y="0px"
	 viewBox="0 0 105.9 105.9" style="enable-background:new 0 0 105.9 105.9;" xml:space="preserve">
<style type="text/css">
	.st0{fill:#FFFFFF;}
</style>
<g>
	<path class="st0" d="M80.99,18.91c-3.43,0-6.21,2.78-6.21,6.21c0,3.43,2.78,6.21,6.21,6.21c3.43,0,6.21-2.78,6.21-6.21
		C87.2,21.69,84.42,18.91,80.99,18.91z"/>
	<path class="st0" d="M53.39,26.87c-14.38,0-26.08,11.7-26.08,26.08c0,14.38,11.7,26.08,26.08,26.08c14.38,0,26.08-11.7,26.08-26.08
		C79.47,38.57,67.77,26.87,53.39,26.87z M53.39,69.66c-9.21,0-16.71-7.49-16.71-16.71s7.49-16.71,16.71-16.71
		c9.21,0,16.71,7.49,16.71,16.71S62.6,69.66,53.39,69.66z"/>
	<path class="st0" d="M74.09,105.9H31.81C14.27,105.9,0,91.63,0,74.09V31.81C0,14.27,14.27,0,31.81,0h42.28
		c17.54,0,31.81,14.27,31.81,31.81v42.28C105.9,91.63,91.63,105.9,74.09,105.9z M31.81,9.96c-12.05,0-21.85,9.8-21.85,21.85v42.28
		c0,12.05,9.8,21.85,21.85,21.85h42.28c12.05,0,21.85-9.8,21.85-21.85V31.81c0-12.05-9.8-21.85-21.85-21.85H31.81z"/>
</g>
</svg>
