<?xml version="1.0" encoding="utf-8"?>
<!-- Generator: Adobe Illustrator 26.5.0, SVG Export Plug-In . SVG Version: 6.00 Build 0)  -->
<svg version="1.1" id="Calque_1" xmlns="http://www.w3.org/2000/svg" xmlns:xlink="http://www.w3.org/1999/xlink" x="0px" y="0px"
	 viewBox="0 0 106.31 106.38" style="enable-background:new 0 0 106.31 106.38;" xml:space="preserve">
<style type="text/css">
	.st0{fill:#FFFFFF;}
</style>
<g>
	<path class="st0" d="M90.98,15.33c-8.05-8.05-16.6-2.83-21.97,2.54L18.37,68.52C13,73.89,7.42,82.01,15.82,90.49
		c8.48,8.48,16.6,2.83,21.97-2.54L88.44,37.3C93.81,31.93,99.04,23.38,90.98,15.33z"/>
	<path class="st0" d="M42.6,13.28l10.74,10.74l10.95-10.95c0.71-0.78,1.48-1.41,2.26-2.05C65.41,5.23,62.09,0,53.33,0
		S41.25,5.23,40.12,11.02C40.97,11.73,41.75,12.43,42.6,13.28z"/>
	<path class="st0" d="M64.21,93.03L53.26,82.08L42.53,92.82c-0.85,0.85-1.62,1.55-2.4,2.26c1.2,5.86,4.73,11.3,13.14,11.3
		c8.48,0,11.94-5.44,13.14-11.3C65.7,94.38,64.99,93.74,64.21,93.03z"/>
	<path class="st0" d="M38,39.28h-20.7C9.75,39.28,0,41.68,0,52.98c0,8.48,5.44,11.94,11.3,13.14C12.08,65.41,38,39.28,38,39.28z"/>
	<path class="st0" d="M95.29,39.84c-0.64,0.78-26.7,26.91-26.7,26.91h20.41c7.56,0,17.31-1.77,17.31-13.7
		C106.31,44.29,101.09,40.97,95.29,39.84z"/>
	<path class="st0" d="M44.79,32.49l3.67-3.67L37.72,18.08c-5.37-5.37-13.49-10.95-21.97-2.54c-6.22,6.22-4.8,12.22-1.55,17.09
		C15.26,32.57,44.79,32.49,44.79,32.49z"/>
	<path class="st0" d="M61.81,73.54l-3.67,3.67l10.95,10.95C74.45,93.53,83,98.68,91.06,90.7c6-6,4.59-12.29,1.27-17.31
		C91.27,73.47,61.81,73.54,61.81,73.54z"/>
</g>
</svg>
