<?xml version="1.0" encoding="utf-8"?>
<!-- Generator: Adobe Illustrator 26.5.0, SVG Export Plug-In . SVG Version: 6.00 Build 0)  -->
<svg version="1.1" id="Calque_1" xmlns="http://www.w3.org/2000/svg" xmlns:xlink="http://www.w3.org/1999/xlink" x="0px" y="0px"
	 viewBox="0 0 84.32 84.12" style="enable-background:new 0 0 84.32 84.12;" xml:space="preserve">
<style type="text/css">
	.st0{fill:#FFFFFF;}
</style>
<g>
	<path class="st0" d="M1.39,27.93h17.49v56.2H1.39V27.93z M10.14,0c5.59,0,10.13,4.54,10.13,10.12c0,5.59-4.53,10.14-10.13,10.14
		C4.53,20.26,0,15.71,0,10.12C0,4.54,4.53,0,10.14,0"/>
	<path class="st0" d="M29.85,27.93H46.6v7.69h0.23c2.34-4.42,8.03-9.08,16.54-9.08c17.68,0,20.95,11.63,20.95,26.77v30.82H66.86
		V56.8c0-6.52-0.13-14.9-9.08-14.9c-9.09,0-10.48,7.1-10.48,14.43v27.8H29.85V27.93z"/>
</g>
</svg>
