<?xml version="1.0" encoding="utf-8"?>
<!-- Generator: Adobe Illustrator 26.5.0, SVG Export Plug-In . SVG Version: 6.00 Build 0)  -->
<svg version="1.1" id="Calque_1" xmlns="http://www.w3.org/2000/svg" xmlns:xlink="http://www.w3.org/1999/xlink" x="0px" y="0px"
	 viewBox="0 0 83.5 107.83" style="enable-background:new 0 0 83.5 107.83;" xml:space="preserve">
<style type="text/css">
	.st0{fill-rule:evenodd;clip-rule:evenodd;fill:#FFFFFF;}
</style>
<g>
	<path class="st0" d="M34.92,70.34c-0.09,0.31-0.18,0.57-0.24,0.83c-3.96,15.52-4.4,18.97-8.47,26.17
		c-1.94,3.42-4.13,6.67-6.55,9.78c-0.27,0.35-0.53,0.81-1.08,0.69c-0.6-0.13-0.64-0.66-0.71-1.14c-0.65-4.71-1.01-9.44-0.85-14.2
		c0.21-6.2,0.97-8.33,8.97-41.95c0.12-0.51-0.01-0.94-0.19-1.4c-1.91-5.16-2.29-10.4-0.62-15.71c3.62-11.47,16.62-12.35,18.89-2.88
		c1.4,5.85-2.3,13.51-5.15,24.83c-2.35,9.34,8.64,15.98,18.04,9.16c8.67-6.28,12.03-21.35,11.39-32.03
		C67.09,11.19,43.74,6.59,28.93,13.44C11.95,21.3,8.09,42.35,15.75,51.96c0.97,1.22,1.72,1.97,1.4,3.21
		c-0.49,1.93-0.93,3.87-1.46,5.78c-0.4,1.43-1.59,1.94-3.03,1.36c-2.83-1.14-5.18-2.94-7.09-5.31c-6.51-8.06-8.37-24.01,0.23-37.51
		C15.34,4.53,33.08-1.52,49.28,0.32c19.35,2.2,31.58,15.42,33.87,30.42c1.04,6.83,0.29,23.68-9.3,35.58
		C62.82,80,44.93,80.91,36.68,72.51C36.05,71.87,35.54,71.11,34.92,70.34z"/>
</g>
</svg>
