<?xml version="1.0" encoding="utf-8"?>
<!-- Generator: Adobe Illustrator 26.5.0, SVG Export Plug-In . SVG Version: 6.00 Build 0)  -->
<svg version="1.1" id="Calque_1" xmlns="http://www.w3.org/2000/svg" xmlns:xlink="http://www.w3.org/1999/xlink" x="0px" y="0px"
	 viewBox="0 0 1750.17 2390.09" style="enable-background:new 0 0 1750.17 2390.09;" xml:space="preserve">
<style type="text/css">
	.st0{fill:#FF931E;}
</style>
<g>
	<g>
		<path class="st0" d="M528.82,405.2C485,563.94,348.74,657.47,158.74,605.01L0,561.19L154.93,0l158.74,43.82
			C503.67,96.28,572.42,247.27,528.82,405.2z M447.85,382.85c34.75-125.87-21.24-229.33-154.32-266.07l-78.57-21.69L100.31,510.37
			l78.57,21.69C311.96,568.8,413.1,508.71,447.85,382.85z"/>
		<path class="st0" d="M819.26,918.9L608.22,658.52c-46.29,52.51-50.65,122.42,1.19,186.38c28.8,35.54,68.55,56.84,106.48,56.08
			l8.26,73.59c-62.98,2.87-124.34-26.61-170.95-84.12c-87.98-108.54-64.91-238.58,29.42-315.04
			c94.33-76.46,228.42-69.52,306.45,26.75C961.34,691.33,953.94,835.43,819.26,918.9z M821.48,818.61
			c49.28-52.79,57.06-115.84,12.02-171.4c-45.56-56.21-113.29-64.48-174.89-29.54L821.48,818.61z"/>
		<path class="st0" d="M846.88,1318.3c-72.87,17.09-145.76-20.49-171.39-129.8c-18.99-80.97-2.55-156.58,55.18-187.21l41.19,66.37
			c-19.53,11.42-43.56,40.11-27.98,106.51c12.53,53.44,41.42,78.27,77.86,69.73c47.77-11.2,31.63-80.03,31.29-139.75
			c-1.04-80.91,28.42-122.84,89.15-137.09c75.3-17.66,143.37,32.15,164.26,121.22c15.57,66.4-4.57,133.48-61.88,162.3l-34.77-64.46
			c20.96-12.6,39.56-42.59,28.73-88.75c-9.5-40.49-39.19-65.13-73.2-57.15c-46.15,10.83-36.1,68.26-34.8,117.51
			C933.02,1263.07,908.42,1303.87,846.88,1318.3z"/>
		<path class="st0" d="M1129.33,1358.1l12.32,75.52l-416.16,67.89l-12.32-75.52L1129.33,1358.1z M1245.08,1334.16
			c22.98-3.75,45.76,11.92,49.65,35.72c3.88,23.8-12.74,45.9-35.72,49.65c-23.8,3.88-45.76-11.92-49.65-35.72
			C1205.48,1360,1221.28,1338.04,1245.08,1334.16z"/>
		<path class="st0" d="M1385.42,1811.02l-275.51,258.19c-87.39,81.89-198.54,98.29-302.61-12.76
			c-56.87-60.69-83.21-137.44-68.9-197.59l72.28,21.17c-6.19,27.46,1.05,76.53,48.82,127.5c68.81,73.43,142.27,58.16,203.56,0.72
			l23.67-22.18c-49.07,7.23-103.41-4.53-150.62-54.9c-84.74-90.42-66.81-225.76,9.65-297.42c75.86-71.09,212.07-80.2,296.81,10.22
			c47.2,50.37,55.42,105.36,45.63,153.29l44.91-42.08L1385.42,1811.02z M1187.45,1891.68c57.65-54.03,63.2-134.46,8.04-193.32
			c-54.03-57.65-138.63-61.57-196.28-7.55c-58.26,54.6-59.83,139.28-5.8,196.93C1048.57,1946.6,1129.2,1946.27,1187.45,1891.68z"/>
		<path class="st0" d="M1712.98,2182.23l-162.19,207.86l-59.67-46.56l148.88-190.81c36.33-46.55,52.98-108.46-9.31-157.06
			c-62.95-49.12-130.99-14.65-161.17,24.04l-148.88,190.81l-59.67-46.56l259.4-332.44l59.67,46.56l-36.33,46.55
			c42.69-14.16,94.92-13.49,145.41,25.9C1763.87,2008.85,1767.72,2112.07,1712.98,2182.23z"/>
	</g>
</g>
</svg>
