<?xml version="1.0" encoding="utf-8"?>
<!-- Generator: Adobe Illustrator 26.5.0, SVG Export Plug-In . SVG Version: 6.00 Build 0)  -->
<svg version="1.1" id="Calque_1" xmlns="http://www.w3.org/2000/svg" xmlns:xlink="http://www.w3.org/1999/xlink" x="0px" y="0px"
	 viewBox="0 0 3725.19 6282" style="enable-background:new 0 0 3725.19 6282;" xml:space="preserve">
<style type="text/css">
	.st0{clip-path:url(#SVGID_00000122722974793055861190000013415876252216510613_);fill:#E30137;}
</style>
<g>
	<defs>
		<path id="SVGID_1_" d="M467.55,76.99c53.3,438.8,386.48,833.38,810.14,959.65c256.53,76.32,549.5,65.62,832.84,55.24
			c424.85-15.57,864.19-31.67,1215.86,236.86c199.56,152.54,332.64,395.34,364.85,666.14c32,270.15-40.11,538.04-198.48,733.28
			c-92.75,114.27-206.37,202.26-316.32,287.23c-49.73,38.49-99.56,76.97-147.02,117.83c-363.45,313.4-583.88,787-589.6,1266.77
			c-1.41,78.27,3.35,155.67,7.89,238.16c8.86,162.27,17.95,330.15-15.68,498.58c-90.27,449.61-493.07,835.33-1026.24,982.57
			C938.24,6248.38,439.88,6199.19,0,6155.84L0,76.99H467.55z"/>
	</defs>
	<use xlink:href="#SVGID_1_"  style="overflow:visible;fill:#E30137;"/>
	<clipPath id="SVGID_00000084490468346582909110000003871834984703260060_">
		<use xlink:href="#SVGID_1_"  style="overflow:visible;"/>
	</clipPath>
	
		<rect x="8.41" y="-4410.11" style="clip-path:url(#SVGID_00000084490468346582909110000003871834984703260060_);fill:#E30137;" width="20907.91" height="30992.02"/>
</g>
</svg>
