<?xml version="1.0" encoding="utf-8"?>
<!-- Generator: Adobe Illustrator 26.5.0, SVG Export Plug-In . SVG Version: 6.00 Build 0)  -->
<svg version="1.1" id="Calque_1" xmlns="http://www.w3.org/2000/svg" xmlns:xlink="http://www.w3.org/1999/xlink" x="0px" y="0px"
	 viewBox="0 0 3599.69 5941.98" style="enable-background:new 0 0 3599.69 5941.98;" xml:space="preserve">
<style type="text/css">
	.st0{clip-path:url(#SVGID_00000073683030088449714750000016608859447706856064_);fill:#FFD213;}
</style>
<g>
	<defs>
		<path id="SVGID_1_" d="M3152.37,3c-50.99,419.81-369.75,797.31-775.08,918.12c-245.43,73.02-525.72,62.78-796.8,52.85
			c-406.47-14.89-826.79-30.3-1163.24,226.61c-190.93,145.93-318.24,378.23-349.06,637.31c-30.61,258.46,38.37,514.75,189.89,701.54
			c88.74,109.32,197.44,193.51,302.63,274.8c47.58,36.82,95.26,73.64,140.66,112.73c347.72,299.83,558.61,752.94,564.09,1211.95
			c1.34,74.88-3.21,148.93-7.55,227.85c-8.48,155.24-17.17,315.86,15,477c86.36,430.15,471.73,799.18,981.83,940.04
			c447.32,123.49,924.12,76.43,1344.96,34.96V3H3152.37z"/>
	</defs>
	<use xlink:href="#SVGID_1_"  style="overflow:visible;fill:#FFD213;"/>
	<clipPath id="SVGID_00000164492960797221814120000004128681659027802517_">
		<use xlink:href="#SVGID_1_"  style="overflow:visible;"/>
	</clipPath>
	
		<rect x="-16411.44" y="-4289.91" transform="matrix(-1 -1.224647e-16 1.224647e-16 -1 -12819.7998 21070.9512)" style="clip-path:url(#SVGID_00000164492960797221814120000004128681659027802517_);fill:#FFD213;" width="20003.07" height="29650.77"/>
</g>
</svg>
