<?xml version="1.0" encoding="utf-8"?>
<!-- Generator: Adobe Illustrator 26.5.0, SVG Export Plug-In . SVG Version: 6.00 Build 0)  -->
<svg version="1.1" id="Calque_1" xmlns="http://www.w3.org/2000/svg" xmlns:xlink="http://www.w3.org/1999/xlink" x="0px" y="0px"
	 viewBox="0 0 3840 4024" style="enable-background:new 0 0 3840 4024;" xml:space="preserve">
<style type="text/css">
	.st0{clip-path:url(#SVGID_00000031180149732970801380000001400897497024093617_);}
	.st1{clip-path:url(#SVGID_00000127761460600078028140000000924070504160585913_);fill:#FF7BAC;}
</style>
<g>
	<defs>
		<rect id="SVGID_1_" width="3840" height="4024"/>
	</defs>
	<clipPath id="SVGID_00000096018924388586633850000008392413155878386852_">
		<use xlink:href="#SVGID_1_"  style="overflow:visible;"/>
	</clipPath>
	<g style="clip-path:url(#SVGID_00000096018924388586633850000008392413155878386852_);">
		<defs>
			<path id="SVGID_00000168111851495365657540000013303562199652625080_" d="M3932.8,4060.37
				c-157.36-13.63-307.01-116.56-400.27-275.33c-93.28-158.77-110.29-339.58-45.59-483.66c19.01-42.27,44.32-84.18,71.14-128.53
				c36.82-60.94,74.91-123.93,102.42-197.04c73.4-195,37.22-423.87-96.69-612.22c-133.92-188.39-338.2-297.7-546.49-292.42
				c-128.81,3.25-250.83,42.07-368.86,79.6c-161.48,51.37-300.97,95.74-409.31,34.92c-150.83-84.68-147.24-347.08-67.21-551
				c20.19-51.48,43.08-102.87,67.3-157.29c87.09-195.73,185.8-417.58,146.22-656.25c-47.14-283.71-290.79-523.07-606.32-595.65
				c-241.04-55.44-513.81-20.31-810.69,104.36C362.52,584.34-121.99,1108.97-327.54,1733.24
				c-48.38,146.91-81.39,297.37-113.32,442.87c-21,95.7-42.71,194.65-68.23,289.32C-703.74,3187.26-1302.16,3989.58-2156,4045.34
				L3932.8,4060.37z"/>
		</defs>
		<use xlink:href="#SVGID_00000168111851495365657540000013303562199652625080_"  style="overflow:visible;fill:#FF7BAC;"/>
		<clipPath id="SVGID_00000106106889350808384760000003896482767102696320_">
			<use xlink:href="#SVGID_00000168111851495365657540000013303562199652625080_"  style="overflow:visible;"/>
		</clipPath>
		
			<rect x="-7928.25" y="-25268.14" style="clip-path:url(#SVGID_00000106106889350808384760000003896482767102696320_);fill:#FF7BAC;" width="21193.82" height="31415.84"/>
	</g>
</g>
</svg>
