<?xml version="1.0" encoding="utf-8"?>
<!-- Generator: Adobe Illustrator 26.5.0, SVG Export Plug-In . SVG Version: 6.00 Build 0)  -->
<svg version="1.1" id="Calque_1" xmlns="http://www.w3.org/2000/svg" xmlns:xlink="http://www.w3.org/1999/xlink" x="0px" y="0px"
	 viewBox="0 0 3264.13 5893.61" style="enable-background:new 0 0 3264.13 5893.61;" xml:space="preserve">
<style type="text/css">
	.st0{fill:#FFD213;}
</style>
<g>
	<path class="st0" d="M3264.13,5651.62c-216.68,160.65-496.35,206.11-765.22,227.67c-336.63,27-681.52,23.29-1003.88-77.38
		s-622.18-308.46-776.17-609.02C596.87,4954.8,572.9,4676.68,456.31,4435.9C323.06,4160.7,71.85,3939.35,13.04,3639.3
		c-54.77-279.46,71.63-561.37,217.86-805.74s319.29-483.48,372.29-763.28c36.97-195.15,12.36-396.33,25.06-594.54
		c24.41-381.16,193.66-752.6,470.62-1015.61s914.99-596.11,1462.99-402.11L3264.13,5651.62z"/>
</g>
</svg>
