<?xml version="1.0" encoding="utf-8"?>
<!-- Generator: Adobe Illustrator 26.5.0, SVG Export Plug-In . SVG Version: 6.00 Build 0)  -->
<svg version="1.1" id="Calque_1" xmlns="http://www.w3.org/2000/svg" xmlns:xlink="http://www.w3.org/1999/xlink" x="0px" y="0px"
	 viewBox="0 0 3974.02 7500.56" style="enable-background:new 0 0 3974.02 7500.56;" xml:space="preserve">
<style type="text/css">
	.st0{fill:#FF931E;}
</style>
<g>
	<path class="st0" d="M32.02,3477.08h0.28c9.75-63.82,23.03-126.94,41.82-188.81c105.15-346.26,390.59-632.23,736.64-738.03
		c157.65-48.2,323.84-60.66,484.77-96.42c160.93-35.76,323.87-100.02,429.32-226.74c151.23-181.72,149.03-441.79,141.99-678.1
		c-7.04-236.31-2.18-498.22,157.55-672.53c130.7-142.64,332.27-189.34,508.34-269.51c232.7-105.96,429.02-276.57,646.28-411.38
		C3396.27,60.73,3655.19-40.5,3904.56,15.96l40.51,3461.11h28.96l-119.38,3987.7c-416.69,48.67-877.99,86.51-1217.31-160.19
		c-277.66-201.87-405.23-548.7-492.39-880.74c-87.17-332.04-154.26-682.16-358.91-957.77
		c-146.88-197.81-360.54-345.08-597.66-411.97c0,0-756.4-158.16-1016.37-622.09C-99.97,3946.68,32.02,3477.08,32.02,3477.08z"/>
</g>
</svg>
