<?xml version="1.0" encoding="utf-8"?>
<!-- Generator: Adobe Illustrator 26.5.0, SVG Export Plug-In . SVG Version: 6.00 Build 0)  -->
<svg version="1.1" id="Calque_1" xmlns="http://www.w3.org/2000/svg" xmlns:xlink="http://www.w3.org/1999/xlink" x="0px" y="0px"
	 viewBox="0 0 1874.7 1868.4" style="enable-background:new 0 0 1874.7 1868.4;" xml:space="preserve">
<style type="text/css">
	.st0{fill:#FFFFFF;}
</style>
<g>
	<g>
		<g>
			<path class="st0" d="M154.8,516.9c28.1,13.2,39.6,43.4,26.4,71.4l-13.7,29.3l-98.3-46L83,542.4
				C96.2,514.3,126.8,503.8,154.8,516.9z M151.4,524.4c-23.9-11.2-49.5-2.5-60.8,21.5l-10.3,21.9l83.2,39l10.3-21.9
				C185.1,560.9,175.4,535.6,151.4,524.4z"/>
			<path class="st0" d="M219.6,447.2l-35.4,57.5c14.7,6.9,32.4,2.1,41.1-12c5.4-8.8,6.6-18.1,3.6-27.5l7.6-3.7
				c4.2,11.9,2.9,24.2-4.1,35.5c-11.9,19.3-37,24.6-56.2,12.7c-19-11.7-26.5-35.6-14.8-54.6C172.9,436.5,197.1,431.8,219.6,447.2z
				 M177.1,500.4l31-50.3c-15.6-7.4-31.8-3.4-39.7,9.4C159.8,473.5,164.4,490.6,177.1,500.4z"/>
			<path class="st0" d="M271.2,400.8c9.4,7.1,13.8,20.8,2.4,36.1c-8.9,11.9-21.9,15-31.2,11.7l2.5-7.8c6.3,2.2,15.5-0.2,22-8.9
				c7.1-9.4,6.8-18.9-0.6-24.5c-6.8-5.1-12.6-1.9-22.3,6.7c-8.8,7.9-20.9,16.7-33.4,7.3c-10.2-7.6-12-22-3.4-33.4
				c7.2-9.5,18.1-13,28.7-9.1l-3.1,7.8c-7.1-2.6-14.1-0.3-19,6.3c-5.8,7.7-4.7,16.8,1.9,21.8c7.1,5.3,13.9,1.1,23.2-7
				C247.4,400.2,258.4,391.2,271.2,400.8z"/>
			<path class="st0" d="M221.4,337.4c-2.2-1.9-2.6-5.3-0.6-7.6s5.4-2.5,7.6-0.6c2.4,2,2.8,5.4,0.8,7.7
				C227.2,339.2,223.8,339.4,221.4,337.4z M239,350.7l5.4-6.4l60.1,50.7l-5.4,6.4L239,350.7z"/>
			<path class="st0" d="M313,271.3l50.2,49.3c14.3,14,18.8,37.3,0.3,56.1c-9.7,9.8-22.2,14.9-34.5,13.5l1.6-8.2
				c10.1,1,19-2.8,27.1-11c15.4-15.7,10.8-33.5-0.3-44.4l-8.2-8c3.3,11.7,0.5,24.4-9.1,34.3c-15.4,15.7-39.8,15.9-55.5,0.5
				c-15.6-15.3-15.8-39.6-0.4-55.3c9.7-9.8,22.2-12.9,34.1-9.7l-11.2-11L313,271.3z M333.7,303.3c-12.4-12.2-31.5-12-43.6,0.4
				c-12.3,12.5-12.1,31.6,0.3,43.7c12.5,12.3,31.5,12,43.7-0.5C346.2,334.5,346.2,315.6,333.7,303.3z"/>
			<path class="st0" d="M405.8,235.2l29.4,35.9l-6.4,5.2l-29.4-35.9c-6.9-8.4-20.4-16.8-34.4-5.3c-14,11.5-10.6,28.1-3.7,36.5
				l29.4,35.9l-6.4,5.2l-49.8-60.8l6.4-5.2l7.9,9.6c-1.2-9.6,1.5-19.7,11.1-27.5C377.3,214.4,396,223.3,405.8,235.2z"/>
			<path class="st0" d="M509.7,130.4l35.6,60.7c10.1,17.3,8.3,40.9-14.4,54.2c-11.9,7-25.4,8.6-36.8,4l3.7-7.5
				c9.5,3.6,19.1,2.3,29-3.5c19-11.1,19.2-29.5,11.3-42.9l-5.8-9.9c0.1,12.1-5.9,23.7-17.8,30.7c-19,11.1-42.5,5-53.6-14
				c-11-18.9-4.9-42.4,14.1-53.5c11.9-7,24.9-6.6,35.5-0.5l-7.9-13.5L509.7,130.4z M521.2,166.7c-8.8-15-27.2-19.8-42.2-11
				c-15.1,8.9-19.9,27.3-11.2,42.3c8.9,15.1,27.2,19.8,42.3,11C525.2,200.1,530.1,181.8,521.2,166.7z"/>
			<path class="st0" d="M566.6,101l4.1,8.7c-15.7,7.4-20.5,21.9-12,39.8l17.2,36.1l-7.6,3.6l-33.7-71l7.6-3.6l7.2,15.3
				C549.8,118,555,106.5,566.6,101z"/>
			<path class="st0" d="M667.8,147.2l-7.7,2.9l-4.3-11.3c-2.1,8.4-7.4,17.9-20.6,23c-14.6,5.6-29,0.6-33.8-12.1
				c-8.8-23,19.2-33.4,40.1-41.4c0.7-0.3,1.7-0.5,2.4-0.7l-1.9-4.9c-3.9-10.1-12.3-18.2-26.8-12.7c-9.8,3.8-14.3,10.3-17.8,15.9
				l-8-2.4c3.8-7.1,9.7-16.2,22.9-21.2c16.4-6.3,30.8,0.2,37.4,17.4L667.8,147.2z M651.7,128l-4.9-12.7c-0.9,0.3-1.6,0.6-2.5,0.9
				c-16.9,6.5-41.3,14-35,30.5c3.7,9.6,14.3,10.6,22.9,7.3C648.8,147.7,652,134.5,651.7,128z"/>
			<path class="st0" d="M753.6,82.2c5.8,21.9-5.2,44.1-27.2,50c-13,3.5-25.2-0.2-34.1-8.2l11.5,43.1l-8.1,2.2l-28-104.8l8.1-2.2
				l3.8,14.4c3.7-11.6,12.5-20.7,25.5-24.1C727.1,46.6,747.7,60.1,753.6,82.2z M745.7,84.3c-4.7-17.5-21-28.6-38.5-23.9
				s-26,22.3-21.3,39.9s20.8,28.5,38.3,23.8S750.3,101.8,745.7,84.3z"/>
			<path class="st0" d="M836.6,61.7l7,45.8l-8.3,1.3l-7-45.8c-1.6-10.7-9-24.8-26.9-22.1c-17.9,2.7-23.5,18.8-21.8,29.5l7,45.8
				l-8.1,1.2L762.1,10.2l8.1-1.2l6.4,41.8c3.8-8.9,11.3-16.2,23.6-18C822.6,29.3,834.3,46.5,836.6,61.7z"/>
			<path class="st0" d="M855.6,5.9c-0.2-2.9,1.9-5.6,5-5.8c3.1-0.2,5.6,2,5.8,5c0.2,3.1-1.9,5.7-5,6S855.9,8.9,855.6,5.9z
				 M858.7,27.7L867,27l6.4,78.3L865,106L858.7,27.7z"/>
			<path class="st0" d="M967.1,24.1l0.7,108.5l-8.2,0.1l-0.3-44.6c-6.4,10.1-17.2,16.8-30.9,16.9c-22.6,0.2-39.3-18.3-39.5-41
				c-0.2-22.8,16.3-41.3,38.9-41.5c13.6-0.1,24.5,6.4,31.1,16.5l-0.1-14.9L967.1,24.1z M959.1,63.6C959,45.4,946,30.6,927.9,30.8
				c-18.1,0.1-30.8,15.1-30.6,33.2c0.1,18.1,12.9,32.8,31.1,32.7C946.5,96.5,959.2,81.7,959.1,63.6z"/>
			<path class="st0" d="M1061.5,32.4l-7.9,78.2l-8.3-0.8l1.2-12.2c-5.8,7.5-14.9,12.8-27.2,11.6c-22.7-2.3-29.6-21.9-28-37.1
				l4.7-46.3l8.3,0.9l-4.7,46.3c-1.1,10.6,2.5,26.1,20.5,28s27.3-12.3,28.3-23l4.7-46.3L1061.5,32.4z"/>
			<path class="st0" d="M1150.2,93.7L1084,80c-1.4,16.2,9.1,31.2,25.3,34.5c10.2,2.1,19.3,0,27-6l6.1,5.8c-9.7,8-21.8,11-34.8,8.3
				c-22.2-4.6-35.7-26.4-31.1-48.5c4.5-21.9,24.4-37,46.3-32.5C1144.4,46.1,1157.1,67.3,1150.2,93.7z M1085.7,71.8l57.8,12
				c1.7-17.2-7.7-31-22.4-34.1C1105.1,46.4,1090.6,56.5,1085.7,71.8z"/>
			<path class="st0" d="M1276.6,136.2l-63.3-23.6c-3.9,15.8,4.2,32.2,19.7,38c9.7,3.6,19.1,3,27.6-1.8l5.1,6.7
				c-10.8,6.4-23.2,7.6-35.7,2.9c-21.2-7.9-31.2-31.5-23.3-52.7c7.8-20.9,29.8-32.9,50.7-25.1
				C1278.1,88.3,1287.4,111.2,1276.6,136.2z M1216.2,104.8l55.3,20.7c4.3-16.8-2.8-31.8-16.9-37.1
				C1239.2,82.6,1223.4,90.4,1216.2,104.8z"/>
			<path class="st0" d="M1312.3,183.4l-3.5,7.4c-12-4.3-24.2-11.6-14.1-33l19.9-42.3l-12.5-5.9l3.6-7.6l12.5,5.9l7-14.9l7.4,3.5
				l-7,14.9l16.7,7.9l-3.6,7.6l-16.7-7.9l-19.9,42.3C1297.2,171.8,1298,178.2,1312.3,183.4z"/>
			<path class="st0" d="M1425.3,235.3l4.2,7.3c-12.2,5.4-26.8,4.9-38.7-2.9c-19.2-12.4-24.3-37.8-12.1-56.8
				c12.3-19.1,37.6-24.8,56.7-12.5c12,7.7,18.6,20.6,18.7,34l-8.4-0.6c-0.2-10.3-5.3-20.4-14.7-26.4c-15.2-9.8-35.4-5.1-45.2,10.1
				s-5.7,35.4,9.6,45.3C1404.6,238.7,1415.8,239.3,1425.3,235.3z"/>
			<path class="st0" d="M1515.2,281.8c-14.2,17.6-39.9,20.8-57.6,6.5c-17.6-14.2-20.1-40.1-5.9-57.7c14.3-17.7,40-20.7,57.6-6.5
				C1527.1,238.4,1529.5,264,1515.2,281.8z M1508.8,276.6c11.4-14.1,9.5-34.8-4.6-46.1c-14.1-11.4-34.7-8.8-46.1,5.3
				s-9.4,34.6,4.7,46C1477,293.1,1497.4,290.7,1508.8,276.6z"/>
			<path class="st0" d="M1611.8,365.8l-35.6,33.9l-5.8-6.1l35.6-33.9c7.9-7.5,13.1-19.7,3.1-30.3c-10.9-11.5-24.7-6.2-32.6,1.3
				l-34.6,32.9l-5.8-6.1l35.6-33.9c7.9-7.5,13.1-19.7,3.1-30.3c-11-11.6-24.7-6.2-32.6,1.3l-34.6,32.9l-5.8-6.1l56.9-54.2l5.8,6.1
				l-8.7,8.2c8.7-2.3,17.9-1.2,24.8,6.1c8.7,9.1,9.3,19.9,5.6,29.1c9.8-2.7,20.9-1.2,28.7,7C1628.2,337.5,1622.9,355.2,1611.8,365.8
				z"/>
			<path class="st0" d="M1690.4,475.1l-40.3,28.1l-4.8-6.9l40.3-28.1c8.9-6.2,15.9-17.5,7.6-29.5c-9-13-23.5-9.9-32.4-3.7
				l-39.2,27.3l-4.8-6.9l40.3-28.1c8.9-6.2,15.9-17.5,7.6-29.5c-9.1-13.1-23.5-9.9-32.4-3.7l-39.2,27.3l-4.8-6.9l64.5-44.9l4.8,6.9
				l-9.8,6.8c9-1,17.9,1.5,23.6,9.8c7.2,10.3,6.1,21,1.2,29.6c10.1-1.2,20.8,2,27.3,11.2C1710.9,449.8,1703,466.4,1690.4,475.1z"/>
			<path class="st0" d="M1759.5,543l-69.7,36.4l-3.9-7.4l10.8-5.7c-9.4-0.7-18.9-5.3-24.6-16.3c-10.6-20.2,2-36.7,15.6-43.8
				l41.2-21.5l3.9,7.4l-41.2,21.5c-9.5,5-20.4,16.5-12,32.5c8.4,16.1,25.3,16,34.8,11l41.2-21.5L1759.5,543z"/>
			<path class="st0" d="M1765.7,642.1l-43.1,17.1l-3-7.6l43.1-17.1c10.1-4,22.2-14.3,15.5-31.2s-23.6-18.7-33.7-14.7l-43.1,17.1
				l-3-7.6l73.1-29l3,7.6l-11.5,4.6c9.5,1.7,18.3,7.4,22.9,19C1794.1,621.3,1780,636.4,1765.7,642.1z"/>
			<path class="st0" d="M1803.8,655.9l2.5,8l-74.9,23.7l-2.5-8L1803.8,655.9z M1824.4,648.1c2.8-0.9,5.9,0.6,6.8,3.5
				c0.9,3-0.7,5.9-3.5,6.8c-2.9,0.9-6-0.5-7-3.5C1819.8,652,1821.4,649,1824.4,648.1z"/>
			<path class="st0" d="M1772.6,763.6l-2,8.1c-12.6-4.5-22.8-14.9-26.1-28.8c-5.4-22.1,8.4-44.2,30.4-49.5
				c22.1-5.4,44.3,7.9,49.7,30c3.4,13.9-0.8,27.8-9.9,37.5l-5.7-6.3c6.9-7.6,10.2-18.4,7.6-29.3c-4.3-17.6-22.1-28.1-39.8-23.8
				s-28.5,21.8-24.3,39.4C1755.2,751.9,1762.9,760,1772.6,763.6z"/>
			<path class="st0" d="M1764.8,847.7l-1.1-8.1l12-1.7c-7.8-3.9-15.8-11.3-17.8-25.2c-2.2-15.5,5.9-28.4,19.4-30.2
				c24.4-3.4,28.2,26.3,31.3,48.4c0.1,0.8,0.1,1.7,0.2,2.5l5.2-0.7c10.8-1.5,20.5-7.9,18.4-23.2c-1.4-10.4-6.8-16.3-11.5-20.9
				l4.2-7.3c6.1,5.3,13.6,13.1,15.5,27.1c2.4,17.3-7.1,29.9-25.4,32.5L1764.8,847.7z M1787.1,836.3l13.5-1.9
				c-0.1-0.9-0.2-1.7-0.4-2.6c-2.5-18-4.3-43.4-21.8-40.9c-10.1,1.4-13.6,11.6-12.3,20.7C1768.6,829,1780.7,835.2,1787.1,836.3z"/>
			<path class="st0" d="M1776.1,902l-8.2,0.5c-2-12.6-1.4-26.8,22.2-28.2l46.7-2.8l-0.8-13.8l8.4-0.5l0.8,13.8l16.4-1l0.5,8.2
				l-16.4,1l1.1,18.4l-8.4,0.5l-1.1-18.4l-46.7,2.8C1779,883.1,1773.8,886.9,1776.1,902z"/>
			<path class="st0" d="M1847.2,920.5l0.1,8.4l-78.6,0.8l-0.1-8.4L1847.2,920.5z M1869.2,919c2.9,0,5.4,2.3,5.5,5.4
				s-2.4,5.5-5.4,5.5c-3.1,0-5.6-2.3-5.6-5.4S1866.1,919.1,1869.2,919z"/>
			<path class="st0" d="M1803.6,1029.4c-22.6-1.4-40-20.5-38.6-43.3c1.4-22.6,21.1-39.5,43.7-38.1c22.7,1.4,40,20.7,38.6,43.3
				C1845.9,1014.1,1826.3,1030.9,1803.6,1029.4z M1804.1,1021.2c18.1,1.2,33.9-12.3,35-30.4c1.2-18.1-12.8-33.4-30.9-34.6
				s-33.7,12.3-34.8,30.4C1772.2,1004.8,1786,1020.1,1804.1,1021.2z"/>
			<path class="st0" d="M1796.9,1114.4l-45.7-7.8l1.4-8.1l45.7,7.8c10.7,1.8,26.4-0.7,29.4-18.6c3.1-17.9-10.4-28.2-21.1-30
				l-45.7-7.8l1.4-8.1l77.5,13.2l-1.4,8.1l-12.2-2.1c7.2,6.4,11.8,15.8,9.7,28.1C1832,1111.5,1812,1117,1796.9,1114.4z"/>
			<path class="st0" d="M1775.5,1203.1c-5.9-1.8-9.2-8.2-7.4-14.1c1.9-6.1,8.1-9.4,14-7.6c6.1,1.9,9.4,8.1,7.5,14.1
				C1787.8,1201.5,1781.6,1204.9,1775.5,1203.1z"/>
			<path class="st0" d="M1721.2,1349.1c-28.1-13.1-39.7-43.2-26.7-71.3l13.6-29.4l98.4,45.7l-13.6,29.4
				C1779.8,1351.6,1749.3,1362.2,1721.2,1349.1z M1724.6,1341.7c23.9,11.1,49.5,2.3,60.7-21.7l10.2-21.9l-83.4-38.7l-10.2,21.9
				C1690.8,1305.3,1700.6,1330.5,1724.6,1341.7z"/>
			<path class="st0" d="M1656.6,1419l35.2-57.7c-14.7-6.8-32.4-2-41,12.2c-5.4,8.9-6.6,18.2-3.5,27.5l-7.6,3.7
				c-4.2-11.8-3-24.2,3.9-35.6c11.8-19.3,36.9-24.7,56.2-12.9c19.1,11.6,26.6,35.5,15,54.6C1703.4,1429.6,1679.2,1434.4,1656.6,1419
				z M1699,1365.7l-30.8,50.4c15.7,7.4,31.8,3.3,39.6-9.6C1716.4,1392.5,1711.7,1375.5,1699,1365.7z"/>
			<path class="st0" d="M1605.3,1465.7c-9.4-7-13.9-20.8-2.5-36.1c8.9-11.9,21.8-15.1,31.2-11.8l-2.5,7.8c-6.3-2.2-15.5,0.3-21.9,9
				c-7,9.4-6.8,18.9,0.7,24.5c6.8,5.1,12.6,1.8,22.3-6.8c8.8-7.9,20.8-16.8,33.4-7.4c10.2,7.6,12.1,21.9,3.6,33.4
				c-7.1,9.6-18,13.1-28.7,9.2l3.1-7.8c7.1,2.6,14.1,0.3,19-6.3c5.7-7.7,4.6-16.8-2-21.8c-7.1-5.3-13.9-1.1-23.2,7.1
				C1629,1466.2,1618.1,1475.2,1605.3,1465.7z"/>
			<path class="st0" d="M1637.5,1515.7l-5.4,6.4l-60.2-50.5l5.4-6.4L1637.5,1515.7z M1655.2,1528.9c2.3,1.9,2.7,5.3,0.7,7.6
				c-2,2.4-5.4,2.6-7.6,0.7c-2.4-2-2.8-5.4-0.8-7.7C1649.4,1527.1,1652.8,1526.9,1655.2,1528.9z"/>
			<path class="st0" d="M1563.8,1595.3l-50.4-49.1c-14.3-14-18.9-37.2-0.5-56.1c9.6-9.9,22.2-15,34.5-13.6l-1.5,8.2
				c-10.1-1-19,2.9-27.1,11.1c-15.4,15.8-10.7,33.6,0.4,44.4l8.2,8c-3.3-11.7-0.6-24.4,9-34.3c15.4-15.8,39.7-16.1,55.4-0.7
				c15.7,15.3,15.9,39.6,0.6,55.3c-9.6,9.9-22.2,13-34.1,9.8l11.2,10.9L1563.8,1595.3z M1543.1,1563.4c12.4,12.1,31.5,11.9,43.6-0.6
				c12.2-12.5,12-31.6-0.4-43.7c-12.5-12.2-31.5-11.9-43.7,0.7C1530.4,1532.2,1530.5,1551.1,1543.1,1563.4z"/>
			<path class="st0" d="M1471.2,1631.7l-29.5-35.8l6.3-5.2l29.5,35.8c6.9,8.4,20.4,16.7,34.4,5.2s10.5-28.2,3.6-36.5l-29.5-35.8
				l6.3-5.2l50,60.6l-6.3,5.2l-7.9-9.6c1.3,9.6-1.4,19.7-11,27.6C1499.7,1652.4,1480.9,1643.6,1471.2,1631.7z"/>
			<path class="st0" d="M1367.7,1736.9l-35.8-60.6c-10.2-17.2-8.5-40.9,14.2-54.3c11.9-7,25.3-8.6,36.8-4.1l-3.6,7.6
				c-9.5-3.6-19.1-2.2-29,3.6c-19,11.2-19.1,29.6-11.2,42.9l5.8,9.9c-0.2-12.2,5.8-23.8,17.7-30.8c19-11.2,42.5-5.1,53.7,13.8
				c11.1,18.8,5,42.4-13.9,53.6c-11.9,7-24.8,6.7-35.5,0.6l8,13.5L1367.7,1736.9z M1356,1700.6c8.8,14.9,27.3,19.7,42.2,10.9
				c15.1-8.9,19.8-27.4,11-42.3c-8.9-15.1-27.3-19.7-42.4-10.8C1351.9,1667.2,1347.1,1685.5,1356,1700.6z"/>
			<path class="st0" d="M1310.8,1766.4l-4.2-8.7c15.7-7.5,20.4-22,11.8-39.9l-17.3-36.1l7.6-3.6l33.9,70.9l-7.6,3.6l-7.3-15.2
				C1327.5,1749.3,1322.4,1760.9,1310.8,1766.4z"/>
			<path class="st0" d="M1209.4,1720.5l7.7-3l4.4,11.3c2.1-8.4,7.3-18,20.5-23.1c14.6-5.6,29-0.7,33.9,12
				c8.9,23-19.1,33.5-39.9,41.5c-0.7,0.3-1.7,0.5-2.4,0.8l1.9,4.9c3.9,10.1,12.3,18.2,26.8,12.6c9.8-3.8,14.3-10.3,17.8-16l8.1,2.4
				c-3.7,7.1-9.7,16.2-22.8,21.3c-16.3,6.3-30.8-0.1-37.4-17.3L1209.4,1720.5z M1225.6,1739.7l4.9,12.7c0.9-0.3,1.6-0.6,2.5-0.9
				c16.9-6.5,41.2-14.1,34.9-30.6c-3.7-9.5-14.4-10.6-22.9-7.3C1228.5,1720,1225.3,1733.2,1225.6,1739.7z"/>
			<path class="st0" d="M1123.8,1785.9c-5.9-21.8,5.1-44.1,27.1-50.1c13-3.5,25.2,0.1,34.2,8.1l-11.7-43.1l8.1-2.2l28.4,104.7
				l-8.1,2.2l-3.9-14.4c-3.6,11.6-12.4,20.7-25.4,24.2C1150.5,1821.4,1129.8,1807.9,1123.8,1785.9z M1131.8,1783.8
				c4.7,17.5,21.1,28.5,38.6,23.8s25.9-22.4,21.1-39.9s-20.9-28.4-38.4-23.7C1135.6,1748.7,1127,1766.2,1131.8,1783.8z"/>
			<path class="st0" d="M1040.9,1806.6l-7.2-45.8l8.3-1.3l7.2,45.8c1.7,10.7,9.1,24.8,27,22c17.9-2.8,23.4-18.9,21.7-29.6l-7.2-45.8
				l8.1-1.3l16.8,107.2l-8.1,1.3l-6.5-41.8c-3.8,8.9-11.3,16.2-23.5,18.1C1055.1,1838.9,1043.3,1821.8,1040.9,1806.6z"/>
			<path class="st0" d="M1019,1840.7l-8.3,0.7l-6.6-78.3l8.3-0.7L1019,1840.7z M1022.1,1862.5c0.2,2.9-1.9,5.6-5,5.9s-5.6-2-5.9-4.9
				c-0.3-3.1,1.8-5.8,4.9-6C1019.3,1857.2,1021.8,1859.4,1022.1,1862.5z"/>
			<path class="st0" d="M910.6,1844.6l-1.1-108.5l8.2-0.1l0.4,44.6c6.4-10.1,17.2-16.9,30.8-17.1c22.6-0.2,39.4,18.2,39.6,40.8
				c0.2,22.8-16.2,41.4-38.8,41.6c-13.6,0.1-24.5-6.3-31.2-16.4l0.2,14.9L910.6,1844.6z M918.4,1805.2c0.2,18.1,13.2,32.9,31.3,32.7
				c18.1-0.2,30.7-15.2,30.5-33.3c-0.2-18.1-13-32.7-31.2-32.6C931,1772.2,918.2,1787,918.4,1805.2z"/>
			<path class="st0" d="M816.2,1836.7l7.7-78.2l8.3,0.8l-1.2,12.2c5.7-7.5,14.8-12.9,27.2-11.7c22.7,2.2,29.6,21.8,28.1,37
				l-4.5,46.3l-8.3-0.8l4.5-46.3c1-10.6-2.6-26.1-20.6-27.9s-27.2,12.4-28.3,23.1l-4.5,46.3L816.2,1836.7z"/>
			<path class="st0" d="M727.2,1775.6l66.2,13.5c1.4-16.2-9.2-31.1-25.4-34.4c-10.2-2.1-19.3,0-27,6l-6.1-5.8
				c9.7-8,21.7-11.1,34.8-8.4c22.2,4.5,35.8,26.3,31.3,48.4c-4.5,21.9-24.3,37.1-46.2,32.7C733.2,1823.2,720.4,1802.1,727.2,1775.6z
				 M791.8,1797.3l-57.9-11.8c-1.6,17.2,7.8,31,22.5,34C772.5,1822.8,786.9,1812.6,791.8,1797.3z"/>
			<path class="st0" d="M600.7,1733.5L664,1757c3.8-15.8-4.3-32.2-19.9-37.9c-9.7-3.6-19.1-2.9-27.6,1.8l-5.1-6.7
				c10.8-6.4,23.2-7.6,35.7-3c21.2,7.8,31.3,31.4,23.5,52.7c-7.7,20.9-29.7,33-50.7,25.2C599.3,1781.4,589.9,1758.6,600.7,1733.5z
				 M661.1,1764.8l-55.4-20.5c-4.2,16.8,2.9,31.8,17,37C638.2,1787.1,654,1779.2,661.1,1764.8z"/>
			<path class="st0" d="M564.8,1686.5l3.5-7.4c12,4.3,24.2,11.5,14.2,33l-19.8,42.4l12.5,5.8l-3.5,7.6l-12.5-5.8l-7,14.9l-7.4-3.5
				l7-14.9l-16.7-7.8l3.5-7.6l16.7,7.8l19.8-42.4C580,1698,579.2,1691.7,564.8,1686.5z"/>
			<path class="st0" d="M451.7,1635l-4.2-7.3c12.1-5.5,26.7-5,38.8,2.7c19.2,12.3,24.4,37.7,12.2,56.8
				c-12.3,19.2-37.5,24.9-56.7,12.7c-12-7.7-18.7-20.6-18.8-33.9l8.4,0.6c0.2,10.3,5.4,20.4,14.8,26.4c15.3,9.8,35.4,5,45.2-10.3
				s5.6-35.4-9.7-45.2C472.3,1631.5,461.1,1630.9,451.7,1635z"/>
			<path class="st0" d="M361.6,1588.8c14.1-17.7,39.8-21,57.6-6.7c17.7,14.1,20.2,40,6.1,57.7c-14.2,17.8-39.9,20.9-57.6,6.7
				C349.9,1632.2,347.4,1606.6,361.6,1588.8z M368,1593.9c-11.3,14.2-9.4,34.8,4.8,46.1s34.7,8.7,46-5.4c11.3-14.2,9.3-34.7-4.9-46
				C399.8,1577.3,379.3,1579.8,368,1593.9z"/>
			<path class="st0" d="M264.8,1505.2l35.5-34l5.8,6l-35.5,34c-7.8,7.5-13,19.8-3,30.3c10.9,11.4,24.8,6.1,32.6-1.4l34.5-33l5.8,6
				l-35.5,34c-7.8,7.5-13,19.8-3,30.3c11,11.5,24.8,6.1,32.6-1.4l34.5-33l5.8,6l-56.8,54.4l-5.8-6l8.6-8.3c-8.7,2.3-17.9,1.3-24.9-6
				c-8.7-9.1-9.3-19.8-5.7-29.1c-9.8,2.8-20.9,1.3-28.7-6.9C248.5,1533.4,253.7,1515.8,264.8,1505.2z"/>
			<path class="st0" d="M185.8,1396l40.2-28.2l4.8,6.8l-40.2,28.2c-8.9,6.2-15.9,17.6-7.5,29.5c9.1,12.9,23.5,9.8,32.4,3.6
				l39.1-27.4l4.8,6.8l-40.2,28.2c-8.9,6.2-15.9,17.6-7.5,29.5c9.2,13.1,23.5,9.8,32.4,3.6l39.1-27.4l4.8,6.8l-64.3,45.1l-4.8-6.8
				l9.8-6.8c-9,1-17.9-1.5-23.7-9.7c-7.2-10.3-6.2-21-1.2-29.6c-10.1,1.2-20.8-1.9-27.3-11.1C165.4,1421.5,173.2,1404.8,185.8,1396z
				"/>
			<path class="st0" d="M116.4,1328.4l69.5-36.6l3.9,7.4l-10.8,5.7c9.4,0.6,18.9,5.3,24.7,16.3c10.6,20.2-1.9,36.7-15.4,43.9
				l-41.1,21.7l-3.9-7.4l41.1-21.7c9.5-5,20.4-16.5,11.9-32.6c-8.4-16.1-25.4-15.9-34.8-10.9l-41.1,21.7L116.4,1328.4z"/>
			<path class="st0" d="M109.9,1229.3l43-17.2l3.1,7.6l-43,17.2c-10.1,4-22.1,14.4-15.4,31.2c6.7,16.8,23.6,18.6,33.7,14.6l43-17.2
				l3.1,7.6l-72.9,29.2l-3.1-7.6l11.5-4.6c-9.5-1.7-18.3-7.4-22.9-18.9C81.5,1250.2,95.7,1235,109.9,1229.3z"/>
			<path class="st0" d="M51.2,1223.5c-2.8,0.9-5.9-0.6-6.8-3.5c-1-2.9,0.7-5.9,3.5-6.8c3-0.9,6,0.5,7,3.5
				C55.8,1219.6,54.2,1222.5,51.2,1223.5z M71.8,1215.6l-2.6-8l74.8-24l2.6,8L71.8,1215.6z"/>
			<path class="st0" d="M102.6,1107.8l2-8.2c12.6,4.4,22.8,14.8,26.2,28.7c5.4,22.1-8.3,44.2-30.3,49.6
				c-22.1,5.4-44.4-7.8-49.8-29.9c-3.4-13.8,0.7-27.8,9.8-37.5l5.7,6.3c-6.9,7.6-10.2,18.5-7.5,29.3c4.3,17.6,22.2,28.1,39.8,23.7
				c17.6-4.3,28.5-21.8,24.1-39.5C120,1119.5,112.3,1111.3,102.6,1107.8z"/>
			<path class="st0" d="M110.2,1023.7l1.2,8.1l-12,1.7c7.8,3.9,15.8,11.2,17.8,25.2c2.2,15.5-5.8,28.4-19.3,30.3
				c-24.4,3.5-28.3-26.2-31.5-48.3c-0.1-0.8-0.1-1.7-0.2-2.5L61,1039c-10.7,1.5-20.5,7.9-18.3,23.3c1.5,10.4,6.9,16.2,11.6,20.9
				l-4.1,7.3c-6.1-5.2-13.6-13.1-15.6-27.1c-2.5-17.3,7-30,25.3-32.6L110.2,1023.7z M87.9,1035.2l-13.5,1.9c0.1,0.9,0.2,1.7,0.4,2.6
				c2.6,17.9,4.5,43.4,22,40.9c10.1-1.4,13.5-11.6,12.2-20.7C106.4,1042.4,94.3,1036.3,87.9,1035.2z"/>
			<path class="st0" d="M98.7,969.5l8.2-0.5c2,12.6,1.5,26.8-22.1,28.3l-46.7,2.9l0.9,13.8l-8.4,0.5l-0.9-13.8l-16.4,1l-0.5-8.2
				l16.4-1L28,974.1l8.4-0.5l1.2,18.4l46.7-2.9C95.8,988.3,101,984.6,98.7,969.5z"/>
			<path class="st0" d="M5.5,952.7c-2.9,0-5.5-2.2-5.5-5.3s2.4-5.5,5.3-5.5c3.1,0,5.6,2.2,5.7,5.3C11.1,950.3,8.6,952.7,5.5,952.7z
				 M27.5,951.2l-0.1-8.4l78.6-1l0.1,8.4L27.5,951.2z"/>
			<path class="st0" d="M70.7,842.1c22.6,1.4,40.1,20.4,38.7,43.2c-1.4,22.6-21,39.6-43.6,38.2c-22.7-1.4-40.1-20.6-38.7-43.2
				C28.5,857.6,48,840.8,70.7,842.1z M70.2,850.3c-18.1-1.1-33.8,12.4-34.9,30.5c-1.1,18.1,12.9,33.4,31,34.5s33.7-12.4,34.8-30.5
				C102.2,866.7,88.3,851.4,70.2,850.3z"/>
			<path class="st0" d="M77.2,757.1l45.7,7.7l-1.4,8.1l-45.7-7.7c-10.7-1.8-26.4,0.8-29.4,18.7s10.5,28.2,21.2,30l45.7,7.7l-1.4,8.1
				l-77.5-13l1.4-8.1l12.2,2c-7.3-6.4-11.8-15.8-9.8-28C42.1,760.2,62,754.5,77.2,757.1z"/>
			<path class="st0" d="M98.3,668.4c5.9,1.8,9.2,8.1,7.4,14.1c-1.8,6.1-8,9.4-14,7.6c-6.1-1.8-9.4-8-7.6-14.1
				C85.9,670,92.2,666.5,98.3,668.4z"/>
		</g>
	</g>
</g>
</svg>
