<?xml version="1.0" encoding="utf-8"?>
<!-- Generator: Adobe Illustrator 26.5.0, SVG Export Plug-In . SVG Version: 6.00 Build 0)  -->
<svg version="1.1" id="Calque_1" xmlns="http://www.w3.org/2000/svg" xmlns:xlink="http://www.w3.org/1999/xlink" x="0px" y="0px"
	 viewBox="0 0 1867.9 1848.2" style="enable-background:new 0 0 1867.9 1848.2;" xml:space="preserve">
<style type="text/css">
	.st0{fill:#FFFFFF;}
</style>
<g>
	<g>
		<path class="st0" d="M553.7,155.6l9.1,0.7c-2.8,17-12.8,32.7-29.2,41.9c-29.2,16.5-65.2,5.4-81.8-23.8s-7.4-65.7,21.9-82.2
			c16.4-9.3,34.9-9.9,51-3.3l-4.2,8c-13.4-5.2-28.7-4.6-42.4,3.1c-25,14.1-32.4,45.1-18.3,70c14.1,25,44.4,34.5,69.4,20.4
			C542.8,182.5,551.2,169.7,553.7,155.6z"/>
		<path class="st0" d="M646.9,97.7c9.2,22.7-1.3,48.7-24.2,58c-22.7,9.2-48.5-2.1-57.7-24.8c-9.3-22.9,1.4-48.8,24.2-58
			C612,63.6,637.6,74.8,646.9,97.7z M638.6,101.1c-7.4-18.2-27.9-27.3-46.1-19.9s-26.6,28.2-19.2,46.4s27.9,27.1,46.1,19.7
			C637.5,139.9,646,119.3,638.6,101.1z"/>
		<path class="st0" d="M733.5,65l13.4,48.4l-8.6,2.4l-13.4-48.4C721.8,56,712.1,41.8,693.2,47c-19,5.2-22.9,23.2-19.7,34.5
			l13.4,48.4l-8.6,2.4l-22.7-82.1l8.6-2.4l3.6,13c3-10.1,10.1-18.8,23.1-22.4C714.5,32,729.1,49,733.5,65z"/>
		<path class="st0" d="M831.5,76.3l8.6,2.9c-5.9,13.2-18.1,23.3-33.3,25.7c-24.4,3.9-47-12.9-50.8-37.1
			c-3.9-24.4,12.4-47.2,36.8-51.1c15.3-2.4,29.9,3.2,39.7,13.9l-7.3,5.6c-7.6-8.1-19-12.6-31-10.7C774.7,28.6,761.9,47,765,66.4
			c3.1,19.4,21,32.7,40.5,29.6C817.3,94.1,826.8,86.4,831.5,76.3z"/>
		<path class="st0" d="M932.2,54.2L859,57.7c2.9,17.3,18,30.2,35.9,29.4c11.2-0.5,20.3-5.2,26.8-13.6l8,4.5
			c-8,11-19.8,17.4-34.3,18.1c-24.5,1.2-44.6-18-45.8-42.5C848.4,29.5,865.2,8.1,889.4,7C913.2,5.8,932.3,24.6,932.2,54.2z
			 M858.6,48.6l63.9-3.1c-2.9-18.5-16.4-30.5-32.7-29.7C872,16.7,859.6,31.3,858.6,48.6z"/>
		<path class="st0" d="M1038.8,55.7c-1.7,24.5-20.8,43.4-45.4,41.7c-14.6-1-25.8-9-32.1-20.3l-3.2,48.3l-9-0.6l7.9-117.3l9,0.6
			l-1.1,16.1c7.8-10.6,20-16.8,34.6-15.9C1024,9.9,1040.5,31,1038.8,55.7z M1029.9,55.1c1.3-19.6-11.5-36.6-31.1-38
			S964.4,31,963,50.6c-1.3,19.6,11.3,36.5,31,37.8S1028.6,74.7,1029.9,55.1z"/>
		<path class="st0" d="M1089.7,98.9l-1.4,8.8c-13.8-0.9-28.7-4.8-24.5-30.2l8.2-50.1l-14.8-2.4l1.5-8.9l14.8,2.4l2.9-17.6l8.8,1.4
			l-2.9,17.6l19.7,3.2l-1.5,9l-19.7-3.2l-8.2,50.1C1070.5,91.4,1073.2,97.8,1089.7,98.9z"/>
		<path class="st0" d="M1126.4,28.2l8.9,1.9l-18.2,83.2l-8.9-1.9L1126.4,28.2z M1130.2,4.6c0.7-3.1,3.7-5.2,7-4.5s5.2,3.9,4.5,7
			c-0.7,3.3-3.8,5.4-7,4.7C1131.3,11.1,1129.4,7.9,1130.2,4.6z"/>
		<path class="st0" d="M1230.9,101.2c-7.1,23.5-31.6,37.1-55.3,29.9c-23.5-7.1-36.4-32.1-29.3-55.6c7.2-23.6,31.8-37,55.3-29.9
			C1225.2,52.8,1238.1,77.6,1230.9,101.2z M1222.4,98.6c5.7-18.8-4.5-38.8-23.3-44.5s-38.4,5.2-44.2,24s4.6,38.6,23.4,44.3
			C1197.1,128.1,1216.6,117.4,1222.4,98.6z"/>
		<path class="st0" d="M1318.8,130.3l-20.1,46.1l-8.2-3.6l20.1-46c4.7-10.8,6.1-27.9-11.9-35.8s-32.4,3.7-37.1,14.4l-20.1,46.1
			l-8.2-3.6l34-78.1l8.2,3.6l-5.4,12.3c8.6-5.9,19.7-8.3,32.1-2.9C1324.8,92.6,1325.4,115,1318.8,130.3z"/>
		<path class="st0" d="M1488.9,153.6l-64.8,98.2l-7.4-4.9l8.8-13.3c-11.9,5.2-25.7,4.8-38-3.4c-20.5-13.5-24.4-40.2-10.9-60.7
			c13.6-20.6,39.6-27.4,60.1-13.9c12.3,8.1,18.3,20.5,18.1,33.6l26.7-40.5L1488.9,153.6z M1440.2,211.4c10.8-16.4,8.1-37.6-8.3-48.4
			c-16.4-10.8-36.8-4.9-47.6,11.5s-8.1,37.3,8.3,48.1C1408.9,233.4,1429.3,227.8,1440.2,211.4z"/>
		<path class="st0" d="M1524.7,285.4l-56.1-47.2c-9.7,14.7-7.4,34.4,6.3,46c8.6,7.2,18.4,10,28.8,8.2l2.8,8.7
			c-13.4,2.6-26.4-0.7-37.5-10c-18.8-15.8-20.4-43.6-4.7-62.3c15.6-18.5,42.4-22.7,60.9-7.1C1543.7,237,1544.9,263.7,1524.7,285.4z
			 M1474.5,231.3l49,41.2c10.5-15.6,8.7-33.5-3.8-44C1506,217,1487,219.2,1474.5,231.3z"/>
		<path class="st0" d="M1565.9,348.3c-9.1,8.9-24.6,11.4-39-3.4c-11.3-11.5-12.4-25.9-7.3-35.4l7.9,4c-3.4,6.4-2.3,16.6,5.9,25
			c8.9,9.1,19.1,10.4,26.3,3.4c6.6-6.5,4.1-13.1-3.5-25c-7-10.8-14.4-25.1-2.3-37c9.8-9.6,25.5-9.2,36.3,1.9c9,9.2,10.9,21.5,5,32.2
			l-7.8-4.6c4-7.2,2.7-15.1-3.6-21.4c-7.3-7.5-17.2-7.8-23.6-1.6c-6.8,6.7-3.5,14.7,3.6,26.1C1570.5,323,1578.3,336.2,1565.9,348.3z
			"/>
		<path class="st0" d="M1625,322.5l5.9,6.9l-64.5,55.6l-5.9-6.9L1625,322.5z M1642.2,305.9c2.4-2.1,6.1-1.9,8.3,0.6
			c2.2,2.5,1.8,6.2-0.6,8.3c-2.5,2.2-6.2,2-8.4-0.5C1639.3,311.7,1639.7,308.1,1642.2,305.9z"/>
		<path class="st0" d="M1697.3,415.6l-61.6,45c-17.5,12.8-43.2,13.5-60.1-9.5c-8.8-12.1-12-26.4-8.3-39.3l8.5,3.1
			c-2.8,10.6-0.3,20.9,7,30.9c14.1,19.2,34,17.4,47.5,7.5l10-7.3c-13.1,1.5-26.2-3.7-35.1-15.8c-14.1-19.2-10.1-45.3,9.2-59.4
			c19.1-14,45.2-10,59.3,9.3c8.8,12.1,9.9,26.1,4.4,38.2l13.7-10L1697.3,415.6z M1659.4,432.1c15.2-11.1,18.3-31.5,7.2-46.7
			c-11.2-15.3-31.6-18.5-46.8-7.4c-15.3,11.2-18.3,31.5-7.1,46.9C1623.8,440,1644.1,443.3,1659.4,432.1z"/>
		<path class="st0" d="M1719.1,521.7l-43.7,24.8l-4.4-7.8l43.7-24.8c10.2-5.8,21.7-18.6,12-35.8s-28.1-16.5-38.3-10.7l-43.7,24.8
			l-4.4-7.8l74.1-42l4.4,7.8l-11.7,6.6c10.5,0.4,20.7,5.2,27.3,17C1746.5,495.2,1733.6,513.5,1719.1,521.7z"/>
		<path class="st0" d="M1772.6,674.2c-23.1,8.2-48.1-1.8-56.4-25c-4.9-13.8-2.1-27.3,5.8-37.6l-45.6,16.3l-3.1-8.5l110.8-39.5
			l3.1,8.5l-15.2,5.4c12.8,2.9,23.4,11.6,28.3,25.4C1808.8,642.4,1795.9,665.9,1772.6,674.2z M1769.7,665.8
			c18.5-6.6,29-25.2,22.4-43.7c-6.6-18.5-26.4-26.1-44.9-19.5c-18.5,6.6-28.9,24.9-22.3,43.5
			C1731.4,664.6,1751.1,672.4,1769.7,665.8z"/>
		<path class="st0" d="M1830.3,721.5l-10.1,2.6c-4.6-18.2-19-26.4-39.8-21.1l-42,10.6l-2.2-8.8l82.6-20.9l2.2,8.8l-17.8,4.5
			C1815.7,700.1,1826.8,708,1830.3,721.5z"/>
		<path class="st0" d="M1832.3,742.3l1.8,8.9l-83.6,16.4l-1.8-8.9L1832.3,742.3z M1855.5,736.4c3.1-0.6,6.3,1.3,6.9,4.6
			c0.7,3.3-1.5,6.3-4.6,6.9c-3.3,0.7-6.4-1.3-7.1-4.6C1850.1,740,1852.2,737,1855.5,736.4z"/>
		<path class="st0" d="M1813.5,855l-49.9,5.9l-1.1-8.8l49.9-5.9c11.7-1.4,27.2-8.8,24.9-28.3c-2.3-19.5-19.5-26.1-31.2-24.7
			l-49.9,5.9l-1.1-8.8l84.6-10l1.1,8.8l-13.3,1.6c9.5,4.5,17.1,12.9,18.7,26.2C1849.1,841.2,1830.1,853.1,1813.5,855z"/>
		<path class="st0" d="M1773.9,919.8l-8.9,0.2c-1.7-13.7-0.7-29.1,25-29.8l50.7-1.4l-0.4-14.9l9.1-0.3l0.4,15l17.8-0.5l0.2,8.9
			l-17.8,0.5l0.6,20l-9.1,0.3l-0.6-20l-50.7,1.4C1777.7,899.5,1771.9,903.4,1773.9,919.8z"/>
		<path class="st0" d="M1792.8,1065.3l8.3-72.8c-17.6,0-32.8,12.8-34.8,30.7c-1.3,11.2,1.8,20.8,9.1,28.6l-5.7,7.1
			c-9.5-9.7-14-22.4-12.3-36.8c2.8-24.4,25-41.1,49.4-38.3c24,2.8,42.4,22.8,39.6,46.8C1843.6,1054.4,1822,1070.2,1792.8,1065.3z
			 M1810.2,993.6l-7.3,63.6c18.8,0.1,32.8-11.3,34.6-27.5C1839.5,1012,1827.1,997.4,1810.2,993.6z"/>
		<path class="st0" d="M1752.1,1114.9l-8.7-1.8c1.5-13.8,6.1-28.4,31.2-23.2l49.7,10.3l3-14.6l8.9,1.8l-3,14.6l17.4,3.6l-1.8,8.7
			l-17.4-3.6l-4.1,19.6l-8.9-1.8l4.1-19.6l-49.7-10.3C1760.5,1096.1,1754,1098.5,1752.1,1114.9z"/>
		<path class="st0" d="M1810.4,1290.8l-110.3-40.8l3.1-8.3l15,5.5c-7.8-10.4-10.5-23.9-5.4-37.8c8.5-23,33.7-32.9,56.7-24.4
			c23.2,8.6,35.7,32.4,27.2,55.4c-5.1,13.9-15.8,22.4-28.7,25.2l45.5,16.8L1810.4,1290.8z M1743,1256.4c18.4,6.8,38.4-0.7,45.2-19.1
			s-3.5-36.9-22-43.8c-18.4-6.8-38.2,0.6-45,19C1714.5,1231,1724.6,1249.6,1743,1256.4z"/>
		<path class="st0" d="M1767.2,1306.5l-3.8,8.2l-77.2-35.9l3.8-8.2L1767.2,1306.5z M1789.4,1315.3c2.9,1.3,4.3,4.8,2.8,7.8
			c-1.4,3.1-4.9,4.2-7.8,2.8c-3.1-1.4-4.4-4.8-3-7.9C1782.9,1315.1,1786.4,1313.9,1789.4,1315.3z"/>
		<path class="st0" d="M1711.9,1410.7l-66.3-37.7c-18.8-10.7-30-33.9-15.9-58.7c7.4-13,19.1-21.8,32.4-23.7l0.7,9.1
			c-10.8,1.8-19.2,8.2-25.3,19.1c-11.8,20.8-1.9,38.1,12.7,46.4l10.8,6.1c-6.7-11.3-7.4-25.4,0-38.4c11.8-20.8,37.2-27.8,57.9-16
			c20.6,11.7,27.6,37.1,15.8,57.9c-7.4,13-19.7,19.7-33,19.7l14.8,8.4L1711.9,1410.7z M1681.3,1382.9c16.4,9.3,36.3,3.8,45.6-12.6
			c9.4-16.5,3.9-36.4-12.5-45.7c-16.5-9.4-36.3-3.8-45.7,12.7C1659.5,1353.7,1664.8,1373.5,1681.3,1382.9z"/>
		<path class="st0" d="M1695,1435.2l-5.1,7.5l-70.4-47.9l5.1-7.5L1695,1435.2z M1715.5,1447.5c2.6,1.8,3.4,5.4,1.6,8.2
			c-1.9,2.8-5.5,3.3-8.2,1.6c-2.8-1.9-3.6-5.5-1.7-8.3C1709.1,1446.2,1712.7,1445.6,1715.5,1447.5z"/>
		<path class="st0" d="M1590.5,1448.3l-7.1-5.4c7.3-11.8,17.7-23,38.2-7.5l40.4,30.7l9.1-11.9l7.2,5.5l-9.1,11.9l14.2,10.8l-5.4,7.1
			l-14.2-10.8l-12.1,15.9l-7.2-5.5l12.1-15.9l-40.4-30.7C1606.2,1434.9,1599.3,1434.3,1590.5,1448.3z"/>
		<path class="st0" d="M1529.9,1504.7l6-6.6l9.7,8.8c-2.1-9.2-1.7-21,8.6-32.3c11.4-12.6,27.7-14.8,38.7-4.9
			c19.8,17.9-2.2,41.7-18.4,59.7c-0.6,0.6-1.4,1.3-1.9,1.9l4.2,3.8c8.7,7.9,20.8,11.6,32.1-0.9c7.7-8.5,8.8-17,9.4-24.1l9-1.6
			c-0.2,8.7-1.5,20.4-11.7,31.8c-12.7,14.1-29.8,14.9-44.7,1.5L1529.9,1504.7z M1555,1515.4l11,9.9c0.7-0.8,1.2-1.4,1.9-2.1
			c13.2-14.6,33-33.8,18.8-46.6c-8.2-7.4-19.1-3.2-25.7,4.2C1548.1,1494.9,1551.5,1509.2,1555,1515.4z"/>
		<path class="st0" d="M1588.2,1611.7l-81.5-84.8l6.4-6.2l81.5,84.8L1588.2,1611.7z"/>
		<path class="st0" d="M1468.5,1628.9c-4.1-5.3-3.1-12.9,2.2-17.1c5.4-4.2,13-3.3,17.1,2c4.2,5.4,3.3,13-2.1,17.2
			C1480.4,1635.1,1472.7,1634.3,1468.5,1628.9z"/>
		<path class="st0" d="M1312.1,1694.3l-9.1-0.7c2.8-17,12.9-32.7,29.3-41.9c29.3-16.4,65.3-5.2,81.7,24.1s7.2,65.7-22.1,82.1
			c-16.4,9.2-35,9.8-51,3.2l4.2-7.9c13.3,5.2,28.7,4.7,42.4-3c25.1-14.1,32.5-45,18.5-69.9c-14.1-25.1-44.3-34.7-69.4-20.6
			C1322.9,1667.4,1314.5,1680.2,1312.1,1694.3z"/>
		<path class="st0" d="M1218.7,1751.9c-9.2-22.8,1.4-48.7,24.3-57.9c22.8-9.2,48.5,2.2,57.7,25c9.2,22.9-1.6,48.8-24.3,57.9
			C1253.4,1786.1,1227.9,1774.8,1218.7,1751.9z M1226.9,1748.6c7.3,18.2,27.8,27.4,46.1,20c18.2-7.3,26.7-28.1,19.4-46.4
			c-7.3-18.2-27.8-27.2-46-19.9C1228.1,1709.7,1219.6,1730.4,1226.9,1748.6z"/>
		<path class="st0" d="M1131.9,1784.3l-13.2-48.5l8.6-2.3l13.2,48.5c3.1,11.3,12.7,25.6,31.7,20.4c19-5.2,22.9-23.2,19.8-34.5
			l-13.2-48.5l8.6-2.3l22.4,82.2l-8.6,2.3l-3.5-13c-3,10.1-10.2,18.8-23.2,22.3C1150.9,1817.5,1136.3,1800.4,1131.9,1784.3z"/>
		<path class="st0" d="M1034,1772.8l-8.6-2.9c5.9-13.2,18.1-23.2,33.4-25.6c24.4-3.8,46.9,13.1,50.7,37.3
			c3.8,24.4-12.5,47.2-36.9,51c-15.3,2.4-29.9-3.3-39.6-14l7.3-5.6c7.6,8.2,19,12.7,30.9,10.8c19.4-3,32.4-21.4,29.3-40.8
			s-20.9-32.8-40.4-29.7C1048.2,1755.1,1038.7,1762.7,1034,1772.8z"/>
		<path class="st0" d="M933.2,1794.6l73.2-3.3c-2.8-17.4-17.9-30.3-35.8-29.5c-11.2,0.5-20.3,5.1-26.8,13.5l-7.9-4.5
			c8.1-11,19.9-17.4,34.3-18c24.5-1.1,44.5,18.2,45.7,42.7c1.1,24.2-15.8,45.4-39.9,46.6C952.1,1843,933,1824.2,933.2,1794.6z
			 M1006.8,1800.4l-63.9,2.9c2.9,18.5,16.3,30.5,32.6,29.8C993.3,1832.3,1005.7,1817.7,1006.8,1800.4z"/>
		<path class="st0" d="M826.6,1792.8c1.7-24.5,20.9-43.3,45.5-41.6c14.6,1,25.8,9.1,32.1,20.4l3.4-48.3l9,0.6l-8.2,117.3l-9-0.6
			l1.1-16.1c-7.8,10.6-20,16.8-34.6,15.8C841.3,1838.6,824.9,1817.4,826.6,1792.8z M835.5,1793.4c-1.4,19.6,11.4,36.7,31,38
			c19.6,1.4,34.5-13.8,35.8-33.4c1.4-19.6-11.2-36.5-30.9-37.9S836.9,1773.8,835.5,1793.4z"/>
		<path class="st0" d="M775.9,1749.4l1.5-8.8c13.8,0.9,28.7,4.9,24.4,30.3l-8.3,50.1l14.8,2.4l-1.5,8.9l-14.8-2.4l-2.9,17.6
			l-8.8-1.5l2.9-17.6l-19.7-3.3l1.5-8.9l19.7,3.3l8.3-50.1C795.1,1757,792.4,1750.6,775.9,1749.4z"/>
		<path class="st0" d="M735.1,1843.6c-0.7,3.1-3.7,5.2-7,4.5s-5.2-3.9-4.5-7c0.7-3.3,3.8-5.4,7-4.6
			C734,1837.2,735.8,1840.3,735.1,1843.6z M739,1820l-8.9-2l18.4-83.2l8.9,2L739,1820z"/>
		<path class="st0" d="M634.7,1746.8c7.2-23.4,31.8-37,55.3-29.8c23.5,7.2,36.3,32.2,29.1,55.7c-7.2,23.6-31.9,36.9-55.3,29.8
			C640.2,1795.2,627.5,1770.4,634.7,1746.8z M643.2,1749.4c-5.8,18.8,4.4,38.8,23.2,44.6s38.5-5.1,44.2-23.8
			c5.8-18.8-4.5-38.6-23.3-44.4C668.6,1719.9,649,1730.6,643.2,1749.4z"/>
		<path class="st0" d="M546.8,1717.4l20.2-46l8.2,3.6l-20.2,46c-4.7,10.8-6.2,27.9,11.8,35.8c18,7.9,32.4-3.6,37.1-14.3l20.2-46
			l8.2,3.6l-34.3,78l-8.2-3.6l5.4-12.3c-8.7,5.9-19.8,8.2-32.1,2.8C540.7,1755.1,540.2,1732.6,546.8,1717.4z"/>
		<path class="st0" d="M376.8,1693.6l65-98l7.4,4.9l-8.8,13.3c11.9-5.2,25.7-4.7,38,3.5c20.4,13.6,24.3,40.3,10.7,60.7
			c-13.7,20.6-39.7,27.3-60.1,13.7c-12.3-8.2-18.2-20.6-18-33.7l-26.9,40.4L376.8,1693.6z M425.7,1635.9
			c-10.9,16.4-8.2,37.5,8.2,48.4c16.4,10.9,36.8,5.1,47.6-11.3c10.9-16.4,8.2-37.3-8.1-48.2C457,1614,436.6,1619.6,425.7,1635.9z"/>
		<path class="st0" d="M341.4,1561.7l55.9,47.3c9.8-14.6,7.5-34.4-6.2-46c-8.6-7.3-18.4-10-28.8-8.3l-2.8-8.7
			c13.4-2.5,26.4,0.8,37.4,10.1c18.7,15.8,20.3,43.6,4.5,62.3c-15.6,18.5-42.5,22.6-60.9,7C322.3,1610,321.1,1583.3,341.4,1561.7z
			 M391.4,1615.9l-48.9-41.3c-10.5,15.5-8.8,33.5,3.7,44C359.8,1630.1,378.9,1628,391.4,1615.9z"/>
		<path class="st0" d="M300.3,1498.6c9.2-8.9,24.6-11.3,39,3.5c11.2,11.6,12.3,26,7.2,35.4l-7.9-4c3.4-6.4,2.4-16.6-5.8-25
			c-8.9-9.2-19.1-10.5-26.3-3.5c-6.6,6.4-4.1,13.1,3.4,25c7,10.8,14.4,25.2,2.2,37c-9.9,9.6-25.6,9.1-36.3-2
			c-9-9.3-10.9-21.5-4.9-32.3l7.8,4.6c-4,7.2-2.7,15.1,3.5,21.4c7.3,7.5,17.2,7.9,23.6,1.7c6.9-6.7,3.5-14.7-3.5-26.1
			C295.7,1524,287.9,1510.7,300.3,1498.6z"/>
		<path class="st0" d="M223.9,1540.9c-2.4,2.1-6.1,1.9-8.3-0.6c-2.2-2.6-1.8-6.2,0.6-8.3c2.6-2.2,6.2-2,8.4,0.5
			S226.5,1538.7,223.9,1540.9z M241.1,1524.3l-5.9-6.9l64.7-55.4l5.9,6.9L241.1,1524.3z"/>
		<path class="st0" d="M169.1,1431l61.7-44.9c17.5-12.8,43.2-13.4,60,9.7c8.8,12.1,11.9,26.4,8.2,39.3l-8.5-3.2
			c2.9-10.6,0.4-20.9-6.9-30.9c-14-19.3-33.9-17.5-47.5-7.6l-10.1,7.3c13.1-1.4,26.2,3.8,35,15.9c14,19.3,9.9,45.3-9.4,59.4
			c-19.2,13.9-45.2,9.8-59.2-9.5c-8.8-12.1-9.8-26.1-4.3-38.2l-13.7,10L169.1,1431z M207.1,1414.6c-15.2,11.1-18.4,31.5-7.4,46.7
			c11.2,15.3,31.6,18.6,46.8,7.5c15.3-11.2,18.4-31.5,7.3-46.8C242.7,1406.8,222.4,1403.4,207.1,1414.6z"/>
		<path class="st0" d="M147.7,1324.8l43.8-24.6l4.4,7.8l-43.8,24.6c-10.2,5.8-21.7,18.6-12.1,35.7s28,16.6,38.3,10.8l43.8-24.6
			l4.4,7.8l-74.2,41.8l-4.4-7.8l11.7-6.6c-10.5-0.5-20.7-5.3-27.3-17C120.2,1351.3,133.2,1333,147.7,1324.8z"/>
		<path class="st0" d="M94.6,1172.2c23.1-8.2,48.1,1.9,56.3,25.2c4.9,13.8,2,27.3-6,37.6l45.6-16.1l3,8.6l-110.9,39.2l-3-8.6
			l15.2-5.4c-12.8-3-23.4-11.7-28.2-25.5C58.4,1203.9,71.3,1180.4,94.6,1172.2z M97.5,1180.6c-18.5,6.6-29.1,25.1-22.5,43.6
			c6.6,18.5,26.3,26.1,44.9,19.6s29-24.9,22.4-43.4C135.8,1181.9,116.1,1174.1,97.5,1180.6z"/>
		<path class="st0" d="M37.1,1124.7l10.1-2.5c4.6,18.2,18.9,26.4,39.8,21.2l42.1-10.5l2.2,8.8l-82.6,20.7l-2.2-8.8l17.8-4.4
			C51.6,1146.2,40.5,1138.2,37.1,1124.7z"/>
		<path class="st0" d="M11.9,1109.8c-3.1,0.6-6.2-1.4-6.9-4.7s1.5-6.3,4.7-6.9c3.3-0.6,6.4,1.3,7.1,4.6
			C17.4,1106.2,15.2,1109.1,11.9,1109.8z M35.1,1103.9l-1.7-8.9l83.6-16.2l1.7,8.9L35.1,1103.9z"/>
		<path class="st0" d="M54.2,991.3l49.9-5.8l1,8.8l-49.9,5.8c-11.7,1.3-27.2,8.7-25,28.3c2.3,19.5,19.4,26.2,31.1,24.8l49.9-5.8
			l1,8.8l-84.6,9.8l-1-8.8l13.4-1.5c-9.5-4.5-17-12.9-18.6-26.3C18.6,1005,37.7,993.2,54.2,991.3z"/>
		<path class="st0" d="M94,926.6l8.9-0.2c1.7,13.7,0.6,29.1-25.1,29.7l-50.7,1.3l0.4,15l-9.1,0.2l-0.4-15L0.2,958L0,949.1l17.8-0.5
			l-0.5-20l9.1-0.2l0.5,20l50.7-1.3C90.2,946.8,96,943,94,926.6z"/>
		<path class="st0" d="M75.6,781L67,853.8c17.6,0,32.8-12.7,34.9-30.6c1.3-11.2-1.8-20.8-9-28.6l5.7-7.1
			c9.5,9.8,13.9,22.5,12.2,36.8c-2.9,24.4-25.1,41-49.5,38.2c-24-2.8-42.3-22.9-39.5-46.9C24.7,791.8,46.4,776,75.6,781z M58,852.7
			l7.5-63.6c-18.8-0.2-32.8,11.2-34.7,27.4C28.7,834.2,41,848.8,58,852.7z"/>
		<path class="st0" d="M116.3,731.5l8.7,1.8c-1.5,13.8-6.1,28.4-31.3,23.1L44.1,746L41,760.7l-8.9-1.9l3.1-14.6l-17.4-3.7l1.8-8.7
			l17.4,3.7l4.1-19.6l8.9,1.9l-4.1,19.6l49.7,10.4C107.9,750.3,114.4,747.9,116.3,731.5z"/>
		<path class="st0" d="M58.6,555.5l110.2,41.1l-3.1,8.3l-14.9-5.6c7.8,10.4,10.4,24,5.3,37.8c-8.6,23-33.7,32.8-56.7,24.2
			c-23.1-8.6-35.6-32.5-27-55.4c5.2-13.8,15.9-22.4,28.7-25.1l-45.5-17L58.6,555.5z M125.8,590.1c-18.4-6.9-38.4,0.6-45.3,19
			c-6.9,18.4,3.4,37,21.8,43.8c18.4,6.9,38.2-0.5,45.1-18.9C154.3,615.6,144.3,596.9,125.8,590.1z"/>
		<path class="st0" d="M79.7,531c-2.9-1.3-4.3-4.8-2.8-7.8s4.9-4.2,7.8-2.8c3,1.4,4.4,4.8,3,7.9S82.7,532.4,79.7,531z M101.8,539.9
			l3.8-8.2l77.1,36.1L179,576L101.8,539.9z"/>
		<path class="st0" d="M157.4,435.9l66.2,37.8c18.8,10.8,29.9,33.9,15.8,58.7c-7.4,13-19.2,21.7-32.5,23.6l-0.6-9.1
			c10.9-1.7,19.2-8.2,25.4-19c11.8-20.7,2-38.1-12.5-46.5l-10.8-6.2c6.7,11.4,7.3,25.5-0.1,38.4c-11.8,20.7-37.3,27.7-58,15.8
			c-20.6-11.8-27.5-37.2-15.7-57.9c7.4-13,19.8-19.7,33.1-19.6l-14.7-8.4L157.4,435.9z M187.9,463.8c-16.3-9.3-36.3-3.9-45.6,12.4
			c-9.4,16.5-4,36.4,12.4,45.8c16.5,9.4,36.3,3.9,45.7-12.6C209.7,493,204.4,473.2,187.9,463.8z"/>
		<path class="st0" d="M153.9,399c-2.6-1.8-3.4-5.4-1.5-8.2c1.9-2.8,5.5-3.3,8.2-1.5c2.8,1.9,3.6,5.5,1.7,8.3
			C160.4,400.4,156.7,400.9,153.9,399z M174.4,411.4l5.1-7.5l70.3,48.1l-5.1,7.5L174.4,411.4z"/>
		<path class="st0" d="M279,398.6l7.1,5.4c-7.3,11.8-17.8,23-38.2,7.3l-40.3-30.9l-9.1,11.9l-7.2-5.5l9.1-11.9l-14.1-10.8l5.4-7.1
			l14.1,10.8l12.2-15.9l7.2,5.5l-12.2,15.9l40.3,30.9C263.2,411.9,270.1,412.6,279,398.6z"/>
		<path class="st0" d="M339.6,342.4l-6,6.6l-9.7-8.8c2.1,9.2,1.6,21-8.7,32.3c-11.4,12.5-27.7,14.8-38.7,4.8
			c-19.8-18,2.3-41.7,18.6-59.6c0.6-0.6,1.4-1.2,1.9-1.9l-4.2-3.8c-8.7-7.9-20.8-11.6-32.1,0.8c-7.7,8.5-8.8,17-9.4,24.1l-9,1.6
			c0.2-8.7,1.5-20.4,11.8-31.7c12.8-14,29.9-14.9,44.6-1.4L339.6,342.4z M314.6,331.6l-10.9-10c-0.7,0.8-1.2,1.4-1.9,2.1
			c-13.2,14.5-33.1,33.7-19,46.6c8.2,7.5,19.1,3.3,25.7-4.1C321.4,352.1,318.1,337.8,314.6,331.6z"/>
		<path class="st0" d="M281.7,235.2l81.2,85l-6.4,6.1l-81.2-85L281.7,235.2z"/>
		<path class="st0" d="M401.4,218.4c4.1,5.3,3,12.9-2.3,17.1c-5.4,4.2-13,3.3-17.1-2c-4.2-5.4-3.3-13,2.2-17.2
			C389.5,212.1,397.2,213,401.4,218.4z"/>
	</g>
</g>
</svg>
